<?xml version="1.0" encoding="utf-8" standalone="no"?>
<!DOCTYPE svg PUBLIC "-//W3C//DTD SVG 1.1//EN"
  "http://www.w3.org/Graphics/SVG/1.1/DTD/svg11.dtd">
<!-- Created with matplotlib (http://matplotlib.org/) -->
<svg height="288pt" version="1.1" viewBox="0 0 432 288" width="432pt" xmlns="http://www.w3.org/2000/svg" xmlns:xlink="http://www.w3.org/1999/xlink">
 <defs>
  <style type="text/css">
*{stroke-linecap:butt;stroke-linejoin:round;}
  </style>
 </defs>
 <g id="figure_1">
  <g id="patch_1">
   <path d="M 0 288 
L 432 288 
L 432 0 
L 0 0 
z
" style="fill:#ffffff;"/>
  </g>
  <g id="axes_1">
   <g id="patch_2">
    <path d="M 53.735 221.025665 
L 414.460956 221.025665 
L 414.460956 45.996875 
L 53.735 45.996875 
z
" style="fill:#ffffff;"/>
   </g>
   <g id="matplotlib.axis_1">
    <g id="xtick_1">
     <g id="line2d_1">
      <path clip-path="url(#p30640801e2)" d="M 57.532115 221.025665 
L 57.532115 45.996875 
" style="fill:none;stroke:#b0b0b0;stroke-linecap:square;stroke-width:0.8;"/>
     </g>
     <g id="line2d_2">
      <defs>
       <path d="M 0 0 
L 0 3.5 
" id="m1122863b3c" style="stroke:#000000;stroke-width:0.8;"/>
      </defs>
      <g>
       <use style="stroke:#000000;stroke-width:0.8;" x="57.532115" xlink:href="#m1122863b3c" y="221.025665"/>
      </g>
     </g>
     <g id="text_1">
      <!-- 1825 -->
      <defs>
       <path d="M 12.40625 8.296875 
L 28.515625 8.296875 
L 28.515625 63.921875 
L 10.984375 60.40625 
L 10.984375 69.390625 
L 28.421875 72.90625 
L 38.28125 72.90625 
L 38.28125 8.296875 
L 54.390625 8.296875 
L 54.390625 0 
L 12.40625 0 
z
" id="DejaVuSans-31"/>
       <path d="M 31.78125 34.625 
Q 24.75 34.625 20.71875 30.859375 
Q 16.703125 27.09375 16.703125 20.515625 
Q 16.703125 13.921875 20.71875 10.15625 
Q 24.75 6.390625 31.78125 6.390625 
Q 38.8125 6.390625 42.859375 10.171875 
Q 46.921875 13.96875 46.921875 20.515625 
Q 46.921875 27.09375 42.890625 30.859375 
Q 38.875 34.625 31.78125 34.625 
z
M 21.921875 38.8125 
Q 15.578125 40.375 12.03125 44.71875 
Q 8.5 49.078125 8.5 55.328125 
Q 8.5 64.0625 14.71875 69.140625 
Q 20.953125 74.21875 31.78125 74.21875 
Q 42.671875 74.21875 48.875 69.140625 
Q 55.078125 64.0625 55.078125 55.328125 
Q 55.078125 49.078125 51.53125 44.71875 
Q 48 40.375 41.703125 38.8125 
Q 48.828125 37.15625 52.796875 32.3125 
Q 56.78125 27.484375 56.78125 20.515625 
Q 56.78125 9.90625 50.3125 4.234375 
Q 43.84375 -1.421875 31.78125 -1.421875 
Q 19.734375 -1.421875 13.25 4.234375 
Q 6.78125 9.90625 6.78125 20.515625 
Q 6.78125 27.484375 10.78125 32.3125 
Q 14.796875 37.15625 21.921875 38.8125 
z
M 18.3125 54.390625 
Q 18.3125 48.734375 21.84375 45.5625 
Q 25.390625 42.390625 31.78125 42.390625 
Q 38.140625 42.390625 41.71875 45.5625 
Q 45.3125 48.734375 45.3125 54.390625 
Q 45.3125 60.0625 41.71875 63.234375 
Q 38.140625 66.40625 31.78125 66.40625 
Q 25.390625 66.40625 21.84375 63.234375 
Q 18.3125 60.0625 18.3125 54.390625 
z
" id="DejaVuSans-38"/>
       <path d="M 19.1875 8.296875 
L 53.609375 8.296875 
L 53.609375 0 
L 7.328125 0 
L 7.328125 8.296875 
Q 12.9375 14.109375 22.625 23.890625 
Q 32.328125 33.6875 34.8125 36.53125 
Q 39.546875 41.84375 41.421875 45.53125 
Q 43.3125 49.21875 43.3125 52.78125 
Q 43.3125 58.59375 39.234375 62.25 
Q 35.15625 65.921875 28.609375 65.921875 
Q 23.96875 65.921875 18.8125 64.3125 
Q 13.671875 62.703125 7.8125 59.421875 
L 7.8125 69.390625 
Q 13.765625 71.78125 18.9375 73 
Q 24.125 74.21875 28.421875 74.21875 
Q 39.75 74.21875 46.484375 68.546875 
Q 53.21875 62.890625 53.21875 53.421875 
Q 53.21875 48.921875 51.53125 44.890625 
Q 49.859375 40.875 45.40625 35.40625 
Q 44.1875 33.984375 37.640625 27.21875 
Q 31.109375 20.453125 19.1875 8.296875 
z
" id="DejaVuSans-32"/>
       <path d="M 10.796875 72.90625 
L 49.515625 72.90625 
L 49.515625 64.59375 
L 19.828125 64.59375 
L 19.828125 46.734375 
Q 21.96875 47.46875 24.109375 47.828125 
Q 26.265625 48.1875 28.421875 48.1875 
Q 40.625 48.1875 47.75 41.5 
Q 54.890625 34.8125 54.890625 23.390625 
Q 54.890625 11.625 47.5625 5.09375 
Q 40.234375 -1.421875 26.90625 -1.421875 
Q 22.3125 -1.421875 17.546875 -0.640625 
Q 12.796875 0.140625 7.71875 1.703125 
L 7.71875 11.625 
Q 12.109375 9.234375 16.796875 8.0625 
Q 21.484375 6.890625 26.703125 6.890625 
Q 35.15625 6.890625 40.078125 11.328125 
Q 45.015625 15.765625 45.015625 23.390625 
Q 45.015625 31 40.078125 35.4375 
Q 35.15625 39.890625 26.703125 39.890625 
Q 22.75 39.890625 18.8125 39.015625 
Q 14.890625 38.140625 10.796875 36.28125 
z
" id="DejaVuSans-35"/>
      </defs>
      <g transform="translate(50.485354 251.394439)rotate(-45)scale(0.1 -0.1)">
       <use xlink:href="#DejaVuSans-31"/>
       <use x="63.623047" xlink:href="#DejaVuSans-38"/>
       <use x="127.246094" xlink:href="#DejaVuSans-32"/>
       <use x="190.869141" xlink:href="#DejaVuSans-35"/>
      </g>
     </g>
    </g>
    <g id="xtick_2">
     <g id="line2d_3">
      <path clip-path="url(#p30640801e2)" d="M 67.024904 221.025665 
L 67.024904 45.996875 
" style="fill:none;stroke:#b0b0b0;stroke-linecap:square;stroke-width:0.8;"/>
     </g>
     <g id="line2d_4">
      <g>
       <use style="stroke:#000000;stroke-width:0.8;" x="67.024904" xlink:href="#m1122863b3c" y="221.025665"/>
      </g>
     </g>
     <g id="text_2">
      <!-- 1830 -->
      <defs>
       <path d="M 40.578125 39.3125 
Q 47.65625 37.796875 51.625 33 
Q 55.609375 28.21875 55.609375 21.1875 
Q 55.609375 10.40625 48.1875 4.484375 
Q 40.765625 -1.421875 27.09375 -1.421875 
Q 22.515625 -1.421875 17.65625 -0.515625 
Q 12.796875 0.390625 7.625 2.203125 
L 7.625 11.71875 
Q 11.71875 9.328125 16.59375 8.109375 
Q 21.484375 6.890625 26.8125 6.890625 
Q 36.078125 6.890625 40.9375 10.546875 
Q 45.796875 14.203125 45.796875 21.1875 
Q 45.796875 27.640625 41.28125 31.265625 
Q 36.765625 34.90625 28.71875 34.90625 
L 20.21875 34.90625 
L 20.21875 43.015625 
L 29.109375 43.015625 
Q 36.375 43.015625 40.234375 45.921875 
Q 44.09375 48.828125 44.09375 54.296875 
Q 44.09375 59.90625 40.109375 62.90625 
Q 36.140625 65.921875 28.71875 65.921875 
Q 24.65625 65.921875 20.015625 65.03125 
Q 15.375 64.15625 9.8125 62.3125 
L 9.8125 71.09375 
Q 15.4375 72.65625 20.34375 73.4375 
Q 25.25 74.21875 29.59375 74.21875 
Q 40.828125 74.21875 47.359375 69.109375 
Q 53.90625 64.015625 53.90625 55.328125 
Q 53.90625 49.265625 50.4375 45.09375 
Q 46.96875 40.921875 40.578125 39.3125 
z
" id="DejaVuSans-33"/>
       <path d="M 31.78125 66.40625 
Q 24.171875 66.40625 20.328125 58.90625 
Q 16.5 51.421875 16.5 36.375 
Q 16.5 21.390625 20.328125 13.890625 
Q 24.171875 6.390625 31.78125 6.390625 
Q 39.453125 6.390625 43.28125 13.890625 
Q 47.125 21.390625 47.125 36.375 
Q 47.125 51.421875 43.28125 58.90625 
Q 39.453125 66.40625 31.78125 66.40625 
z
M 31.78125 74.21875 
Q 44.046875 74.21875 50.515625 64.515625 
Q 56.984375 54.828125 56.984375 36.375 
Q 56.984375 17.96875 50.515625 8.265625 
Q 44.046875 -1.421875 31.78125 -1.421875 
Q 19.53125 -1.421875 13.0625 8.265625 
Q 6.59375 17.96875 6.59375 36.375 
Q 6.59375 54.828125 13.0625 64.515625 
Q 19.53125 74.21875 31.78125 74.21875 
z
" id="DejaVuSans-30"/>
      </defs>
      <g transform="translate(59.978143 251.394439)rotate(-45)scale(0.1 -0.1)">
       <use xlink:href="#DejaVuSans-31"/>
       <use x="63.623047" xlink:href="#DejaVuSans-38"/>
       <use x="127.246094" xlink:href="#DejaVuSans-33"/>
       <use x="190.869141" xlink:href="#DejaVuSans-30"/>
      </g>
     </g>
    </g>
    <g id="xtick_3">
     <g id="line2d_5">
      <path clip-path="url(#p30640801e2)" d="M 76.517692 221.025665 
L 76.517692 45.996875 
" style="fill:none;stroke:#b0b0b0;stroke-linecap:square;stroke-width:0.8;"/>
     </g>
     <g id="line2d_6">
      <g>
       <use style="stroke:#000000;stroke-width:0.8;" x="76.517692" xlink:href="#m1122863b3c" y="221.025665"/>
      </g>
     </g>
     <g id="text_3">
      <!-- 1835 -->
      <g transform="translate(69.470931 251.394439)rotate(-45)scale(0.1 -0.1)">
       <use xlink:href="#DejaVuSans-31"/>
       <use x="63.623047" xlink:href="#DejaVuSans-38"/>
       <use x="127.246094" xlink:href="#DejaVuSans-33"/>
       <use x="190.869141" xlink:href="#DejaVuSans-35"/>
      </g>
     </g>
    </g>
    <g id="xtick_4">
     <g id="line2d_7">
      <path clip-path="url(#p30640801e2)" d="M 86.01048 221.025665 
L 86.01048 45.996875 
" style="fill:none;stroke:#b0b0b0;stroke-linecap:square;stroke-width:0.8;"/>
     </g>
     <g id="line2d_8">
      <g>
       <use style="stroke:#000000;stroke-width:0.8;" x="86.01048" xlink:href="#m1122863b3c" y="221.025665"/>
      </g>
     </g>
     <g id="text_4">
      <!-- 1840 -->
      <defs>
       <path d="M 37.796875 64.3125 
L 12.890625 25.390625 
L 37.796875 25.390625 
z
M 35.203125 72.90625 
L 47.609375 72.90625 
L 47.609375 25.390625 
L 58.015625 25.390625 
L 58.015625 17.1875 
L 47.609375 17.1875 
L 47.609375 0 
L 37.796875 0 
L 37.796875 17.1875 
L 4.890625 17.1875 
L 4.890625 26.703125 
z
" id="DejaVuSans-34"/>
      </defs>
      <g transform="translate(78.963719 251.394439)rotate(-45)scale(0.1 -0.1)">
       <use xlink:href="#DejaVuSans-31"/>
       <use x="63.623047" xlink:href="#DejaVuSans-38"/>
       <use x="127.246094" xlink:href="#DejaVuSans-34"/>
       <use x="190.869141" xlink:href="#DejaVuSans-30"/>
      </g>
     </g>
    </g>
    <g id="xtick_5">
     <g id="line2d_9">
      <path clip-path="url(#p30640801e2)" d="M 95.503269 221.025665 
L 95.503269 45.996875 
" style="fill:none;stroke:#b0b0b0;stroke-linecap:square;stroke-width:0.8;"/>
     </g>
     <g id="line2d_10">
      <g>
       <use style="stroke:#000000;stroke-width:0.8;" x="95.503269" xlink:href="#m1122863b3c" y="221.025665"/>
      </g>
     </g>
     <g id="text_5">
      <!-- 1845 -->
      <g transform="translate(88.456508 251.394439)rotate(-45)scale(0.1 -0.1)">
       <use xlink:href="#DejaVuSans-31"/>
       <use x="63.623047" xlink:href="#DejaVuSans-38"/>
       <use x="127.246094" xlink:href="#DejaVuSans-34"/>
       <use x="190.869141" xlink:href="#DejaVuSans-35"/>
      </g>
     </g>
    </g>
    <g id="xtick_6">
     <g id="line2d_11">
      <path clip-path="url(#p30640801e2)" d="M 104.996057 221.025665 
L 104.996057 45.996875 
" style="fill:none;stroke:#b0b0b0;stroke-linecap:square;stroke-width:0.8;"/>
     </g>
     <g id="line2d_12">
      <g>
       <use style="stroke:#000000;stroke-width:0.8;" x="104.996057" xlink:href="#m1122863b3c" y="221.025665"/>
      </g>
     </g>
     <g id="text_6">
      <!-- 1850 -->
      <g transform="translate(97.949296 251.394439)rotate(-45)scale(0.1 -0.1)">
       <use xlink:href="#DejaVuSans-31"/>
       <use x="63.623047" xlink:href="#DejaVuSans-38"/>
       <use x="127.246094" xlink:href="#DejaVuSans-35"/>
       <use x="190.869141" xlink:href="#DejaVuSans-30"/>
      </g>
     </g>
    </g>
    <g id="xtick_7">
     <g id="line2d_13">
      <path clip-path="url(#p30640801e2)" d="M 114.488845 221.025665 
L 114.488845 45.996875 
" style="fill:none;stroke:#b0b0b0;stroke-linecap:square;stroke-width:0.8;"/>
     </g>
     <g id="line2d_14">
      <g>
       <use style="stroke:#000000;stroke-width:0.8;" x="114.488845" xlink:href="#m1122863b3c" y="221.025665"/>
      </g>
     </g>
     <g id="text_7">
      <!-- 1855 -->
      <g transform="translate(107.442084 251.394439)rotate(-45)scale(0.1 -0.1)">
       <use xlink:href="#DejaVuSans-31"/>
       <use x="63.623047" xlink:href="#DejaVuSans-38"/>
       <use x="127.246094" xlink:href="#DejaVuSans-35"/>
       <use x="190.869141" xlink:href="#DejaVuSans-35"/>
      </g>
     </g>
    </g>
    <g id="xtick_8">
     <g id="line2d_15">
      <path clip-path="url(#p30640801e2)" d="M 123.981634 221.025665 
L 123.981634 45.996875 
" style="fill:none;stroke:#b0b0b0;stroke-linecap:square;stroke-width:0.8;"/>
     </g>
     <g id="line2d_16">
      <g>
       <use style="stroke:#000000;stroke-width:0.8;" x="123.981634" xlink:href="#m1122863b3c" y="221.025665"/>
      </g>
     </g>
     <g id="text_8">
      <!-- 1860 -->
      <defs>
       <path d="M 33.015625 40.375 
Q 26.375 40.375 22.484375 35.828125 
Q 18.609375 31.296875 18.609375 23.390625 
Q 18.609375 15.53125 22.484375 10.953125 
Q 26.375 6.390625 33.015625 6.390625 
Q 39.65625 6.390625 43.53125 10.953125 
Q 47.40625 15.53125 47.40625 23.390625 
Q 47.40625 31.296875 43.53125 35.828125 
Q 39.65625 40.375 33.015625 40.375 
z
M 52.59375 71.296875 
L 52.59375 62.3125 
Q 48.875 64.0625 45.09375 64.984375 
Q 41.3125 65.921875 37.59375 65.921875 
Q 27.828125 65.921875 22.671875 59.328125 
Q 17.53125 52.734375 16.796875 39.40625 
Q 19.671875 43.65625 24.015625 45.921875 
Q 28.375 48.1875 33.59375 48.1875 
Q 44.578125 48.1875 50.953125 41.515625 
Q 57.328125 34.859375 57.328125 23.390625 
Q 57.328125 12.15625 50.6875 5.359375 
Q 44.046875 -1.421875 33.015625 -1.421875 
Q 20.359375 -1.421875 13.671875 8.265625 
Q 6.984375 17.96875 6.984375 36.375 
Q 6.984375 53.65625 15.1875 63.9375 
Q 23.390625 74.21875 37.203125 74.21875 
Q 40.921875 74.21875 44.703125 73.484375 
Q 48.484375 72.75 52.59375 71.296875 
z
" id="DejaVuSans-36"/>
      </defs>
      <g transform="translate(116.934873 251.394439)rotate(-45)scale(0.1 -0.1)">
       <use xlink:href="#DejaVuSans-31"/>
       <use x="63.623047" xlink:href="#DejaVuSans-38"/>
       <use x="127.246094" xlink:href="#DejaVuSans-36"/>
       <use x="190.869141" xlink:href="#DejaVuSans-30"/>
      </g>
     </g>
    </g>
    <g id="xtick_9">
     <g id="line2d_17">
      <path clip-path="url(#p30640801e2)" d="M 133.474422 221.025665 
L 133.474422 45.996875 
" style="fill:none;stroke:#b0b0b0;stroke-linecap:square;stroke-width:0.8;"/>
     </g>
     <g id="line2d_18">
      <g>
       <use style="stroke:#000000;stroke-width:0.8;" x="133.474422" xlink:href="#m1122863b3c" y="221.025665"/>
      </g>
     </g>
     <g id="text_9">
      <!-- 1865 -->
      <g transform="translate(126.427661 251.394439)rotate(-45)scale(0.1 -0.1)">
       <use xlink:href="#DejaVuSans-31"/>
       <use x="63.623047" xlink:href="#DejaVuSans-38"/>
       <use x="127.246094" xlink:href="#DejaVuSans-36"/>
       <use x="190.869141" xlink:href="#DejaVuSans-35"/>
      </g>
     </g>
    </g>
    <g id="xtick_10">
     <g id="line2d_19">
      <path clip-path="url(#p30640801e2)" d="M 142.96721 221.025665 
L 142.96721 45.996875 
" style="fill:none;stroke:#b0b0b0;stroke-linecap:square;stroke-width:0.8;"/>
     </g>
     <g id="line2d_20">
      <g>
       <use style="stroke:#000000;stroke-width:0.8;" x="142.96721" xlink:href="#m1122863b3c" y="221.025665"/>
      </g>
     </g>
     <g id="text_10">
      <!-- 1870 -->
      <defs>
       <path d="M 8.203125 72.90625 
L 55.078125 72.90625 
L 55.078125 68.703125 
L 28.609375 0 
L 18.3125 0 
L 43.21875 64.59375 
L 8.203125 64.59375 
z
" id="DejaVuSans-37"/>
      </defs>
      <g transform="translate(135.920449 251.394439)rotate(-45)scale(0.1 -0.1)">
       <use xlink:href="#DejaVuSans-31"/>
       <use x="63.623047" xlink:href="#DejaVuSans-38"/>
       <use x="127.246094" xlink:href="#DejaVuSans-37"/>
       <use x="190.869141" xlink:href="#DejaVuSans-30"/>
      </g>
     </g>
    </g>
    <g id="xtick_11">
     <g id="line2d_21">
      <path clip-path="url(#p30640801e2)" d="M 152.459999 221.025665 
L 152.459999 45.996875 
" style="fill:none;stroke:#b0b0b0;stroke-linecap:square;stroke-width:0.8;"/>
     </g>
     <g id="line2d_22">
      <g>
       <use style="stroke:#000000;stroke-width:0.8;" x="152.459999" xlink:href="#m1122863b3c" y="221.025665"/>
      </g>
     </g>
     <g id="text_11">
      <!-- 1875 -->
      <g transform="translate(145.413238 251.394439)rotate(-45)scale(0.1 -0.1)">
       <use xlink:href="#DejaVuSans-31"/>
       <use x="63.623047" xlink:href="#DejaVuSans-38"/>
       <use x="127.246094" xlink:href="#DejaVuSans-37"/>
       <use x="190.869141" xlink:href="#DejaVuSans-35"/>
      </g>
     </g>
    </g>
    <g id="xtick_12">
     <g id="line2d_23">
      <path clip-path="url(#p30640801e2)" d="M 161.952787 221.025665 
L 161.952787 45.996875 
" style="fill:none;stroke:#b0b0b0;stroke-linecap:square;stroke-width:0.8;"/>
     </g>
     <g id="line2d_24">
      <g>
       <use style="stroke:#000000;stroke-width:0.8;" x="161.952787" xlink:href="#m1122863b3c" y="221.025665"/>
      </g>
     </g>
     <g id="text_12">
      <!-- 1880 -->
      <g transform="translate(154.906026 251.394439)rotate(-45)scale(0.1 -0.1)">
       <use xlink:href="#DejaVuSans-31"/>
       <use x="63.623047" xlink:href="#DejaVuSans-38"/>
       <use x="127.246094" xlink:href="#DejaVuSans-38"/>
       <use x="190.869141" xlink:href="#DejaVuSans-30"/>
      </g>
     </g>
    </g>
    <g id="xtick_13">
     <g id="line2d_25">
      <path clip-path="url(#p30640801e2)" d="M 171.445575 221.025665 
L 171.445575 45.996875 
" style="fill:none;stroke:#b0b0b0;stroke-linecap:square;stroke-width:0.8;"/>
     </g>
     <g id="line2d_26">
      <g>
       <use style="stroke:#000000;stroke-width:0.8;" x="171.445575" xlink:href="#m1122863b3c" y="221.025665"/>
      </g>
     </g>
     <g id="text_13">
      <!-- 1885 -->
      <g transform="translate(164.398814 251.394439)rotate(-45)scale(0.1 -0.1)">
       <use xlink:href="#DejaVuSans-31"/>
       <use x="63.623047" xlink:href="#DejaVuSans-38"/>
       <use x="127.246094" xlink:href="#DejaVuSans-38"/>
       <use x="190.869141" xlink:href="#DejaVuSans-35"/>
      </g>
     </g>
    </g>
    <g id="xtick_14">
     <g id="line2d_27">
      <path clip-path="url(#p30640801e2)" d="M 180.938364 221.025665 
L 180.938364 45.996875 
" style="fill:none;stroke:#b0b0b0;stroke-linecap:square;stroke-width:0.8;"/>
     </g>
     <g id="line2d_28">
      <g>
       <use style="stroke:#000000;stroke-width:0.8;" x="180.938364" xlink:href="#m1122863b3c" y="221.025665"/>
      </g>
     </g>
     <g id="text_14">
      <!-- 1890 -->
      <defs>
       <path d="M 10.984375 1.515625 
L 10.984375 10.5 
Q 14.703125 8.734375 18.5 7.8125 
Q 22.3125 6.890625 25.984375 6.890625 
Q 35.75 6.890625 40.890625 13.453125 
Q 46.046875 20.015625 46.78125 33.40625 
Q 43.953125 29.203125 39.59375 26.953125 
Q 35.25 24.703125 29.984375 24.703125 
Q 19.046875 24.703125 12.671875 31.3125 
Q 6.296875 37.9375 6.296875 49.421875 
Q 6.296875 60.640625 12.9375 67.421875 
Q 19.578125 74.21875 30.609375 74.21875 
Q 43.265625 74.21875 49.921875 64.515625 
Q 56.59375 54.828125 56.59375 36.375 
Q 56.59375 19.140625 48.40625 8.859375 
Q 40.234375 -1.421875 26.421875 -1.421875 
Q 22.703125 -1.421875 18.890625 -0.6875 
Q 15.09375 0.046875 10.984375 1.515625 
z
M 30.609375 32.421875 
Q 37.25 32.421875 41.125 36.953125 
Q 45.015625 41.5 45.015625 49.421875 
Q 45.015625 57.28125 41.125 61.84375 
Q 37.25 66.40625 30.609375 66.40625 
Q 23.96875 66.40625 20.09375 61.84375 
Q 16.21875 57.28125 16.21875 49.421875 
Q 16.21875 41.5 20.09375 36.953125 
Q 23.96875 32.421875 30.609375 32.421875 
z
" id="DejaVuSans-39"/>
      </defs>
      <g transform="translate(173.891603 251.394439)rotate(-45)scale(0.1 -0.1)">
       <use xlink:href="#DejaVuSans-31"/>
       <use x="63.623047" xlink:href="#DejaVuSans-38"/>
       <use x="127.246094" xlink:href="#DejaVuSans-39"/>
       <use x="190.869141" xlink:href="#DejaVuSans-30"/>
      </g>
     </g>
    </g>
    <g id="xtick_15">
     <g id="line2d_29">
      <path clip-path="url(#p30640801e2)" d="M 190.431152 221.025665 
L 190.431152 45.996875 
" style="fill:none;stroke:#b0b0b0;stroke-linecap:square;stroke-width:0.8;"/>
     </g>
     <g id="line2d_30">
      <g>
       <use style="stroke:#000000;stroke-width:0.8;" x="190.431152" xlink:href="#m1122863b3c" y="221.025665"/>
      </g>
     </g>
     <g id="text_15">
      <!-- 1895 -->
      <g transform="translate(183.384391 251.394439)rotate(-45)scale(0.1 -0.1)">
       <use xlink:href="#DejaVuSans-31"/>
       <use x="63.623047" xlink:href="#DejaVuSans-38"/>
       <use x="127.246094" xlink:href="#DejaVuSans-39"/>
       <use x="190.869141" xlink:href="#DejaVuSans-35"/>
      </g>
     </g>
    </g>
    <g id="xtick_16">
     <g id="line2d_31">
      <path clip-path="url(#p30640801e2)" d="M 199.92394 221.025665 
L 199.92394 45.996875 
" style="fill:none;stroke:#b0b0b0;stroke-linecap:square;stroke-width:0.8;"/>
     </g>
     <g id="line2d_32">
      <g>
       <use style="stroke:#000000;stroke-width:0.8;" x="199.92394" xlink:href="#m1122863b3c" y="221.025665"/>
      </g>
     </g>
     <g id="text_16">
      <!-- 1900 -->
      <g transform="translate(192.877179 251.394439)rotate(-45)scale(0.1 -0.1)">
       <use xlink:href="#DejaVuSans-31"/>
       <use x="63.623047" xlink:href="#DejaVuSans-39"/>
       <use x="127.246094" xlink:href="#DejaVuSans-30"/>
       <use x="190.869141" xlink:href="#DejaVuSans-30"/>
      </g>
     </g>
    </g>
    <g id="xtick_17">
     <g id="line2d_33">
      <path clip-path="url(#p30640801e2)" d="M 209.416729 221.025665 
L 209.416729 45.996875 
" style="fill:none;stroke:#b0b0b0;stroke-linecap:square;stroke-width:0.8;"/>
     </g>
     <g id="line2d_34">
      <g>
       <use style="stroke:#000000;stroke-width:0.8;" x="209.416729" xlink:href="#m1122863b3c" y="221.025665"/>
      </g>
     </g>
     <g id="text_17">
      <!-- 1905 -->
      <g transform="translate(202.369968 251.394439)rotate(-45)scale(0.1 -0.1)">
       <use xlink:href="#DejaVuSans-31"/>
       <use x="63.623047" xlink:href="#DejaVuSans-39"/>
       <use x="127.246094" xlink:href="#DejaVuSans-30"/>
       <use x="190.869141" xlink:href="#DejaVuSans-35"/>
      </g>
     </g>
    </g>
    <g id="xtick_18">
     <g id="line2d_35">
      <path clip-path="url(#p30640801e2)" d="M 218.909517 221.025665 
L 218.909517 45.996875 
" style="fill:none;stroke:#b0b0b0;stroke-linecap:square;stroke-width:0.8;"/>
     </g>
     <g id="line2d_36">
      <g>
       <use style="stroke:#000000;stroke-width:0.8;" x="218.909517" xlink:href="#m1122863b3c" y="221.025665"/>
      </g>
     </g>
     <g id="text_18">
      <!-- 1910 -->
      <g transform="translate(211.862756 251.394439)rotate(-45)scale(0.1 -0.1)">
       <use xlink:href="#DejaVuSans-31"/>
       <use x="63.623047" xlink:href="#DejaVuSans-39"/>
       <use x="127.246094" xlink:href="#DejaVuSans-31"/>
       <use x="190.869141" xlink:href="#DejaVuSans-30"/>
      </g>
     </g>
    </g>
    <g id="xtick_19">
     <g id="line2d_37">
      <path clip-path="url(#p30640801e2)" d="M 228.402305 221.025665 
L 228.402305 45.996875 
" style="fill:none;stroke:#b0b0b0;stroke-linecap:square;stroke-width:0.8;"/>
     </g>
     <g id="line2d_38">
      <g>
       <use style="stroke:#000000;stroke-width:0.8;" x="228.402305" xlink:href="#m1122863b3c" y="221.025665"/>
      </g>
     </g>
     <g id="text_19">
      <!-- 1915 -->
      <g transform="translate(221.355544 251.394439)rotate(-45)scale(0.1 -0.1)">
       <use xlink:href="#DejaVuSans-31"/>
       <use x="63.623047" xlink:href="#DejaVuSans-39"/>
       <use x="127.246094" xlink:href="#DejaVuSans-31"/>
       <use x="190.869141" xlink:href="#DejaVuSans-35"/>
      </g>
     </g>
    </g>
    <g id="xtick_20">
     <g id="line2d_39">
      <path clip-path="url(#p30640801e2)" d="M 237.895094 221.025665 
L 237.895094 45.996875 
" style="fill:none;stroke:#b0b0b0;stroke-linecap:square;stroke-width:0.8;"/>
     </g>
     <g id="line2d_40">
      <g>
       <use style="stroke:#000000;stroke-width:0.8;" x="237.895094" xlink:href="#m1122863b3c" y="221.025665"/>
      </g>
     </g>
     <g id="text_20">
      <!-- 1920 -->
      <g transform="translate(230.848333 251.394439)rotate(-45)scale(0.1 -0.1)">
       <use xlink:href="#DejaVuSans-31"/>
       <use x="63.623047" xlink:href="#DejaVuSans-39"/>
       <use x="127.246094" xlink:href="#DejaVuSans-32"/>
       <use x="190.869141" xlink:href="#DejaVuSans-30"/>
      </g>
     </g>
    </g>
    <g id="xtick_21">
     <g id="line2d_41">
      <path clip-path="url(#p30640801e2)" d="M 247.387882 221.025665 
L 247.387882 45.996875 
" style="fill:none;stroke:#b0b0b0;stroke-linecap:square;stroke-width:0.8;"/>
     </g>
     <g id="line2d_42">
      <g>
       <use style="stroke:#000000;stroke-width:0.8;" x="247.387882" xlink:href="#m1122863b3c" y="221.025665"/>
      </g>
     </g>
     <g id="text_21">
      <!-- 1925 -->
      <g transform="translate(240.341121 251.394439)rotate(-45)scale(0.1 -0.1)">
       <use xlink:href="#DejaVuSans-31"/>
       <use x="63.623047" xlink:href="#DejaVuSans-39"/>
       <use x="127.246094" xlink:href="#DejaVuSans-32"/>
       <use x="190.869141" xlink:href="#DejaVuSans-35"/>
      </g>
     </g>
    </g>
    <g id="xtick_22">
     <g id="line2d_43">
      <path clip-path="url(#p30640801e2)" d="M 256.88067 221.025665 
L 256.88067 45.996875 
" style="fill:none;stroke:#b0b0b0;stroke-linecap:square;stroke-width:0.8;"/>
     </g>
     <g id="line2d_44">
      <g>
       <use style="stroke:#000000;stroke-width:0.8;" x="256.88067" xlink:href="#m1122863b3c" y="221.025665"/>
      </g>
     </g>
     <g id="text_22">
      <!-- 1930 -->
      <g transform="translate(249.833909 251.394439)rotate(-45)scale(0.1 -0.1)">
       <use xlink:href="#DejaVuSans-31"/>
       <use x="63.623047" xlink:href="#DejaVuSans-39"/>
       <use x="127.246094" xlink:href="#DejaVuSans-33"/>
       <use x="190.869141" xlink:href="#DejaVuSans-30"/>
      </g>
     </g>
    </g>
    <g id="xtick_23">
     <g id="line2d_45">
      <path clip-path="url(#p30640801e2)" d="M 266.373459 221.025665 
L 266.373459 45.996875 
" style="fill:none;stroke:#b0b0b0;stroke-linecap:square;stroke-width:0.8;"/>
     </g>
     <g id="line2d_46">
      <g>
       <use style="stroke:#000000;stroke-width:0.8;" x="266.373459" xlink:href="#m1122863b3c" y="221.025665"/>
      </g>
     </g>
     <g id="text_23">
      <!-- 1935 -->
      <g transform="translate(259.326698 251.394439)rotate(-45)scale(0.1 -0.1)">
       <use xlink:href="#DejaVuSans-31"/>
       <use x="63.623047" xlink:href="#DejaVuSans-39"/>
       <use x="127.246094" xlink:href="#DejaVuSans-33"/>
       <use x="190.869141" xlink:href="#DejaVuSans-35"/>
      </g>
     </g>
    </g>
    <g id="xtick_24">
     <g id="line2d_47">
      <path clip-path="url(#p30640801e2)" d="M 275.866247 221.025665 
L 275.866247 45.996875 
" style="fill:none;stroke:#b0b0b0;stroke-linecap:square;stroke-width:0.8;"/>
     </g>
     <g id="line2d_48">
      <g>
       <use style="stroke:#000000;stroke-width:0.8;" x="275.866247" xlink:href="#m1122863b3c" y="221.025665"/>
      </g>
     </g>
     <g id="text_24">
      <!-- 1940 -->
      <g transform="translate(268.819486 251.394439)rotate(-45)scale(0.1 -0.1)">
       <use xlink:href="#DejaVuSans-31"/>
       <use x="63.623047" xlink:href="#DejaVuSans-39"/>
       <use x="127.246094" xlink:href="#DejaVuSans-34"/>
       <use x="190.869141" xlink:href="#DejaVuSans-30"/>
      </g>
     </g>
    </g>
    <g id="xtick_25">
     <g id="line2d_49">
      <path clip-path="url(#p30640801e2)" d="M 285.359035 221.025665 
L 285.359035 45.996875 
" style="fill:none;stroke:#b0b0b0;stroke-linecap:square;stroke-width:0.8;"/>
     </g>
     <g id="line2d_50">
      <g>
       <use style="stroke:#000000;stroke-width:0.8;" x="285.359035" xlink:href="#m1122863b3c" y="221.025665"/>
      </g>
     </g>
     <g id="text_25">
      <!-- 1945 -->
      <g transform="translate(278.312274 251.394439)rotate(-45)scale(0.1 -0.1)">
       <use xlink:href="#DejaVuSans-31"/>
       <use x="63.623047" xlink:href="#DejaVuSans-39"/>
       <use x="127.246094" xlink:href="#DejaVuSans-34"/>
       <use x="190.869141" xlink:href="#DejaVuSans-35"/>
      </g>
     </g>
    </g>
    <g id="xtick_26">
     <g id="line2d_51">
      <path clip-path="url(#p30640801e2)" d="M 294.851824 221.025665 
L 294.851824 45.996875 
" style="fill:none;stroke:#b0b0b0;stroke-linecap:square;stroke-width:0.8;"/>
     </g>
     <g id="line2d_52">
      <g>
       <use style="stroke:#000000;stroke-width:0.8;" x="294.851824" xlink:href="#m1122863b3c" y="221.025665"/>
      </g>
     </g>
     <g id="text_26">
      <!-- 1950 -->
      <g transform="translate(287.805063 251.394439)rotate(-45)scale(0.1 -0.1)">
       <use xlink:href="#DejaVuSans-31"/>
       <use x="63.623047" xlink:href="#DejaVuSans-39"/>
       <use x="127.246094" xlink:href="#DejaVuSans-35"/>
       <use x="190.869141" xlink:href="#DejaVuSans-30"/>
      </g>
     </g>
    </g>
    <g id="xtick_27">
     <g id="line2d_53">
      <path clip-path="url(#p30640801e2)" d="M 304.344612 221.025665 
L 304.344612 45.996875 
" style="fill:none;stroke:#b0b0b0;stroke-linecap:square;stroke-width:0.8;"/>
     </g>
     <g id="line2d_54">
      <g>
       <use style="stroke:#000000;stroke-width:0.8;" x="304.344612" xlink:href="#m1122863b3c" y="221.025665"/>
      </g>
     </g>
     <g id="text_27">
      <!-- 1955 -->
      <g transform="translate(297.297851 251.394439)rotate(-45)scale(0.1 -0.1)">
       <use xlink:href="#DejaVuSans-31"/>
       <use x="63.623047" xlink:href="#DejaVuSans-39"/>
       <use x="127.246094" xlink:href="#DejaVuSans-35"/>
       <use x="190.869141" xlink:href="#DejaVuSans-35"/>
      </g>
     </g>
    </g>
    <g id="xtick_28">
     <g id="line2d_55">
      <path clip-path="url(#p30640801e2)" d="M 313.8374 221.025665 
L 313.8374 45.996875 
" style="fill:none;stroke:#b0b0b0;stroke-linecap:square;stroke-width:0.8;"/>
     </g>
     <g id="line2d_56">
      <g>
       <use style="stroke:#000000;stroke-width:0.8;" x="313.8374" xlink:href="#m1122863b3c" y="221.025665"/>
      </g>
     </g>
     <g id="text_28">
      <!-- 1960 -->
      <g transform="translate(306.790639 251.394439)rotate(-45)scale(0.1 -0.1)">
       <use xlink:href="#DejaVuSans-31"/>
       <use x="63.623047" xlink:href="#DejaVuSans-39"/>
       <use x="127.246094" xlink:href="#DejaVuSans-36"/>
       <use x="190.869141" xlink:href="#DejaVuSans-30"/>
      </g>
     </g>
    </g>
    <g id="xtick_29">
     <g id="line2d_57">
      <path clip-path="url(#p30640801e2)" d="M 323.330189 221.025665 
L 323.330189 45.996875 
" style="fill:none;stroke:#b0b0b0;stroke-linecap:square;stroke-width:0.8;"/>
     </g>
     <g id="line2d_58">
      <g>
       <use style="stroke:#000000;stroke-width:0.8;" x="323.330189" xlink:href="#m1122863b3c" y="221.025665"/>
      </g>
     </g>
     <g id="text_29">
      <!-- 1965 -->
      <g transform="translate(316.283428 251.394439)rotate(-45)scale(0.1 -0.1)">
       <use xlink:href="#DejaVuSans-31"/>
       <use x="63.623047" xlink:href="#DejaVuSans-39"/>
       <use x="127.246094" xlink:href="#DejaVuSans-36"/>
       <use x="190.869141" xlink:href="#DejaVuSans-35"/>
      </g>
     </g>
    </g>
    <g id="xtick_30">
     <g id="line2d_59">
      <path clip-path="url(#p30640801e2)" d="M 332.822977 221.025665 
L 332.822977 45.996875 
" style="fill:none;stroke:#b0b0b0;stroke-linecap:square;stroke-width:0.8;"/>
     </g>
     <g id="line2d_60">
      <g>
       <use style="stroke:#000000;stroke-width:0.8;" x="332.822977" xlink:href="#m1122863b3c" y="221.025665"/>
      </g>
     </g>
     <g id="text_30">
      <!-- 1970 -->
      <g transform="translate(325.776216 251.394439)rotate(-45)scale(0.1 -0.1)">
       <use xlink:href="#DejaVuSans-31"/>
       <use x="63.623047" xlink:href="#DejaVuSans-39"/>
       <use x="127.246094" xlink:href="#DejaVuSans-37"/>
       <use x="190.869141" xlink:href="#DejaVuSans-30"/>
      </g>
     </g>
    </g>
    <g id="xtick_31">
     <g id="line2d_61">
      <path clip-path="url(#p30640801e2)" d="M 342.315765 221.025665 
L 342.315765 45.996875 
" style="fill:none;stroke:#b0b0b0;stroke-linecap:square;stroke-width:0.8;"/>
     </g>
     <g id="line2d_62">
      <g>
       <use style="stroke:#000000;stroke-width:0.8;" x="342.315765" xlink:href="#m1122863b3c" y="221.025665"/>
      </g>
     </g>
     <g id="text_31">
      <!-- 1975 -->
      <g transform="translate(335.269004 251.394439)rotate(-45)scale(0.1 -0.1)">
       <use xlink:href="#DejaVuSans-31"/>
       <use x="63.623047" xlink:href="#DejaVuSans-39"/>
       <use x="127.246094" xlink:href="#DejaVuSans-37"/>
       <use x="190.869141" xlink:href="#DejaVuSans-35"/>
      </g>
     </g>
    </g>
    <g id="xtick_32">
     <g id="line2d_63">
      <path clip-path="url(#p30640801e2)" d="M 351.808554 221.025665 
L 351.808554 45.996875 
" style="fill:none;stroke:#b0b0b0;stroke-linecap:square;stroke-width:0.8;"/>
     </g>
     <g id="line2d_64">
      <g>
       <use style="stroke:#000000;stroke-width:0.8;" x="351.808554" xlink:href="#m1122863b3c" y="221.025665"/>
      </g>
     </g>
     <g id="text_32">
      <!-- 1980 -->
      <g transform="translate(344.761793 251.394439)rotate(-45)scale(0.1 -0.1)">
       <use xlink:href="#DejaVuSans-31"/>
       <use x="63.623047" xlink:href="#DejaVuSans-39"/>
       <use x="127.246094" xlink:href="#DejaVuSans-38"/>
       <use x="190.869141" xlink:href="#DejaVuSans-30"/>
      </g>
     </g>
    </g>
    <g id="xtick_33">
     <g id="line2d_65">
      <path clip-path="url(#p30640801e2)" d="M 361.301342 221.025665 
L 361.301342 45.996875 
" style="fill:none;stroke:#b0b0b0;stroke-linecap:square;stroke-width:0.8;"/>
     </g>
     <g id="line2d_66">
      <g>
       <use style="stroke:#000000;stroke-width:0.8;" x="361.301342" xlink:href="#m1122863b3c" y="221.025665"/>
      </g>
     </g>
     <g id="text_33">
      <!-- 1985 -->
      <g transform="translate(354.254581 251.394439)rotate(-45)scale(0.1 -0.1)">
       <use xlink:href="#DejaVuSans-31"/>
       <use x="63.623047" xlink:href="#DejaVuSans-39"/>
       <use x="127.246094" xlink:href="#DejaVuSans-38"/>
       <use x="190.869141" xlink:href="#DejaVuSans-35"/>
      </g>
     </g>
    </g>
    <g id="xtick_34">
     <g id="line2d_67">
      <path clip-path="url(#p30640801e2)" d="M 370.79413 221.025665 
L 370.79413 45.996875 
" style="fill:none;stroke:#b0b0b0;stroke-linecap:square;stroke-width:0.8;"/>
     </g>
     <g id="line2d_68">
      <g>
       <use style="stroke:#000000;stroke-width:0.8;" x="370.79413" xlink:href="#m1122863b3c" y="221.025665"/>
      </g>
     </g>
     <g id="text_34">
      <!-- 1990 -->
      <g transform="translate(363.747369 251.394439)rotate(-45)scale(0.1 -0.1)">
       <use xlink:href="#DejaVuSans-31"/>
       <use x="63.623047" xlink:href="#DejaVuSans-39"/>
       <use x="127.246094" xlink:href="#DejaVuSans-39"/>
       <use x="190.869141" xlink:href="#DejaVuSans-30"/>
      </g>
     </g>
    </g>
    <g id="xtick_35">
     <g id="line2d_69">
      <path clip-path="url(#p30640801e2)" d="M 380.286919 221.025665 
L 380.286919 45.996875 
" style="fill:none;stroke:#b0b0b0;stroke-linecap:square;stroke-width:0.8;"/>
     </g>
     <g id="line2d_70">
      <g>
       <use style="stroke:#000000;stroke-width:0.8;" x="380.286919" xlink:href="#m1122863b3c" y="221.025665"/>
      </g>
     </g>
     <g id="text_35">
      <!-- 1995 -->
      <g transform="translate(373.240157 251.394439)rotate(-45)scale(0.1 -0.1)">
       <use xlink:href="#DejaVuSans-31"/>
       <use x="63.623047" xlink:href="#DejaVuSans-39"/>
       <use x="127.246094" xlink:href="#DejaVuSans-39"/>
       <use x="190.869141" xlink:href="#DejaVuSans-35"/>
      </g>
     </g>
    </g>
    <g id="xtick_36">
     <g id="line2d_71">
      <path clip-path="url(#p30640801e2)" d="M 389.779707 221.025665 
L 389.779707 45.996875 
" style="fill:none;stroke:#b0b0b0;stroke-linecap:square;stroke-width:0.8;"/>
     </g>
     <g id="line2d_72">
      <g>
       <use style="stroke:#000000;stroke-width:0.8;" x="389.779707" xlink:href="#m1122863b3c" y="221.025665"/>
      </g>
     </g>
     <g id="text_36">
      <!-- 2000 -->
      <g transform="translate(382.732946 251.394439)rotate(-45)scale(0.1 -0.1)">
       <use xlink:href="#DejaVuSans-32"/>
       <use x="63.623047" xlink:href="#DejaVuSans-30"/>
       <use x="127.246094" xlink:href="#DejaVuSans-30"/>
       <use x="190.869141" xlink:href="#DejaVuSans-30"/>
      </g>
     </g>
    </g>
    <g id="xtick_37">
     <g id="line2d_73">
      <path clip-path="url(#p30640801e2)" d="M 399.272495 221.025665 
L 399.272495 45.996875 
" style="fill:none;stroke:#b0b0b0;stroke-linecap:square;stroke-width:0.8;"/>
     </g>
     <g id="line2d_74">
      <g>
       <use style="stroke:#000000;stroke-width:0.8;" x="399.272495" xlink:href="#m1122863b3c" y="221.025665"/>
      </g>
     </g>
     <g id="text_37">
      <!-- 2005 -->
      <g transform="translate(392.225734 251.394439)rotate(-45)scale(0.1 -0.1)">
       <use xlink:href="#DejaVuSans-32"/>
       <use x="63.623047" xlink:href="#DejaVuSans-30"/>
       <use x="127.246094" xlink:href="#DejaVuSans-30"/>
       <use x="190.869141" xlink:href="#DejaVuSans-35"/>
      </g>
     </g>
    </g>
    <g id="xtick_38">
     <g id="line2d_75">
      <path clip-path="url(#p30640801e2)" d="M 408.765283 221.025665 
L 408.765283 45.996875 
" style="fill:none;stroke:#b0b0b0;stroke-linecap:square;stroke-width:0.8;"/>
     </g>
     <g id="line2d_76">
      <g>
       <use style="stroke:#000000;stroke-width:0.8;" x="408.765283" xlink:href="#m1122863b3c" y="221.025665"/>
      </g>
     </g>
     <g id="text_38">
      <!-- 2010 -->
      <g transform="translate(401.718522 251.394439)rotate(-45)scale(0.1 -0.1)">
       <use xlink:href="#DejaVuSans-32"/>
       <use x="63.623047" xlink:href="#DejaVuSans-30"/>
       <use x="127.246094" xlink:href="#DejaVuSans-31"/>
       <use x="190.869141" xlink:href="#DejaVuSans-30"/>
      </g>
     </g>
    </g>
    <g id="text_39">
     <!-- Acquisition Years -->
     <defs>
      <path d="M 54.5 0 
L 45.015625 0 
L 40.578125 13.921875 
L 14.015625 13.921875 
L 9.515625 0 
L 0.484375 0 
L 21.6875 63.8125 
L 33.59375 63.8125 
z
M 38.09375 21.6875 
L 27.296875 55.8125 
L 16.5 21.6875 
z
" id="Consolas-41"/>
      <path d="M 45.90625 1.8125 
Q 42.578125 0.53125 39.078125 -0.078125 
Q 35.59375 -0.6875 31.890625 -0.6875 
Q 20.265625 -0.6875 13.984375 5.609375 
Q 7.71875 11.921875 7.71875 24.03125 
Q 7.71875 29.828125 9.515625 34.5625 
Q 11.328125 39.3125 14.59375 42.671875 
Q 17.875 46.046875 22.40625 47.875 
Q 26.953125 49.703125 32.421875 49.703125 
Q 36.234375 49.703125 39.546875 49.171875 
Q 42.875 48.640625 45.90625 47.40625 
L 45.90625 39.3125 
Q 42.71875 40.96875 39.421875 41.71875 
Q 36.140625 42.484375 32.625 42.484375 
Q 29.34375 42.484375 26.4375 41.234375 
Q 23.53125 39.984375 21.328125 37.640625 
Q 19.140625 35.296875 17.875 31.921875 
Q 16.609375 28.5625 16.609375 24.3125 
Q 16.609375 15.4375 20.921875 11.015625 
Q 25.25 6.59375 32.90625 6.59375 
Q 36.375 6.59375 39.625 7.375 
Q 42.875 8.15625 45.90625 9.71875 
z
" id="Consolas-63"/>
      <path d="M 5.328125 23.484375 
Q 5.328125 28.765625 6.71875 33.5 
Q 8.109375 38.234375 11.015625 41.8125 
Q 13.921875 45.40625 18.453125 47.5 
Q 23 49.609375 29.296875 49.609375 
Q 31.78125 49.609375 34.21875 49.21875 
Q 36.671875 48.828125 39.40625 48 
L 46.921875 49.90625 
L 46.921875 -20.015625 
L 38.375 -20.015625 
L 38.375 -1.515625 
L 38.8125 8.984375 
Q 31.890625 -0.875 22.3125 -0.875 
Q 18.015625 -0.875 14.84375 0.875 
Q 11.671875 2.640625 9.546875 5.859375 
Q 7.421875 9.078125 6.375 13.5625 
Q 5.328125 18.0625 5.328125 23.484375 
z
M 14.015625 24.03125 
Q 14.015625 19.921875 14.625 16.640625 
Q 15.234375 13.375 16.46875 11.109375 
Q 17.71875 8.84375 19.59375 7.609375 
Q 21.484375 6.390625 24.03125 6.390625 
Q 27.25 6.390625 30.828125 9.265625 
Q 34.421875 12.15625 38.375 17.828125 
L 38.375 40.578125 
Q 36.421875 41.5 33.953125 42.078125 
Q 31.5 42.671875 28.71875 42.671875 
Q 21.53125 42.671875 17.765625 37.9375 
Q 14.015625 33.203125 14.015625 24.03125 
z
" id="Consolas-71"/>
      <path d="M 47.21875 0 
L 39.59375 0 
L 39.3125 7.90625 
Q 37.109375 5.375 35.125 3.6875 
Q 33.15625 2 31.203125 0.96875 
Q 29.25 -0.046875 27.265625 -0.453125 
Q 25.296875 -0.875 23.09375 -0.875 
Q 15.53125 -0.875 11.671875 3.5625 
Q 7.8125 8.015625 7.8125 17 
L 7.8125 49.03125 
L 16.3125 49.03125 
L 16.3125 17.671875 
Q 16.3125 6.390625 24.8125 6.390625 
Q 26.375 6.390625 27.859375 6.859375 
Q 29.34375 7.328125 30.984375 8.46875 
Q 32.625 9.625 34.5 11.578125 
Q 36.375 13.53125 38.71875 16.5 
L 38.71875 49.03125 
L 47.21875 49.03125 
z
" id="Consolas-75"/>
      <path d="M 24.515625 42 
L 10.015625 42 
L 10.015625 49.03125 
L 33.109375 49.03125 
L 33.109375 7.078125 
L 47.703125 7.078125 
L 47.703125 0 
L 8.40625 0 
L 8.40625 7.078125 
L 24.515625 7.078125 
z
M 27.484375 69.578125 
Q 28.90625 69.578125 30.125 69.0625 
Q 31.34375 68.5625 32.25 67.625 
Q 33.15625 66.703125 33.671875 65.5 
Q 34.1875 64.3125 34.1875 62.890625 
Q 34.1875 61.53125 33.671875 60.296875 
Q 33.15625 59.078125 32.25 58.15625 
Q 31.34375 57.234375 30.125 56.71875 
Q 28.90625 56.203125 27.484375 56.203125 
Q 26.078125 56.203125 24.859375 56.71875 
Q 23.640625 57.234375 22.734375 58.15625 
Q 21.828125 59.078125 21.3125 60.296875 
Q 20.796875 61.53125 20.796875 62.890625 
Q 20.796875 64.3125 21.3125 65.5 
Q 21.828125 66.703125 22.734375 67.625 
Q 23.640625 68.5625 24.859375 69.0625 
Q 26.078125 69.578125 27.484375 69.578125 
z
" id="Consolas-69"/>
      <path d="M 46.625 13.375 
Q 46.625 10.796875 45.75 8.734375 
Q 44.875 6.6875 43.359375 5.09375 
Q 41.84375 3.515625 39.84375 2.390625 
Q 37.84375 1.265625 35.5625 0.53125 
Q 33.296875 -0.203125 30.90625 -0.53125 
Q 28.515625 -0.875 26.21875 -0.875 
Q 21.234375 -0.875 17.0625 -0.4375 
Q 12.890625 0 8.890625 0.984375 
L 8.890625 8.796875 
Q 13.1875 7.5625 17.4375 6.921875 
Q 21.6875 6.296875 25.875 6.296875 
Q 31.984375 6.296875 34.90625 7.953125 
Q 37.84375 9.625 37.84375 12.703125 
Q 37.84375 14.015625 37.375 15.0625 
Q 36.921875 16.109375 35.6875 17.0625 
Q 34.46875 18.015625 31.90625 19.03125 
Q 29.34375 20.0625 24.90625 21.390625 
Q 21.578125 22.359375 18.765625 23.609375 
Q 15.96875 24.859375 13.90625 26.5625 
Q 11.859375 28.265625 10.6875 30.5625 
Q 9.515625 32.859375 9.515625 35.984375 
Q 9.515625 38.03125 10.46875 40.46875 
Q 11.421875 42.921875 13.71875 45.015625 
Q 16.015625 47.125 19.921875 48.515625 
Q 23.828125 49.90625 29.6875 49.90625 
Q 32.5625 49.90625 36.078125 49.578125 
Q 39.59375 49.265625 43.40625 48.484375 
L 43.40625 40.921875 
Q 39.40625 41.890625 35.8125 42.359375 
Q 32.234375 42.828125 29.59375 42.828125 
Q 26.421875 42.828125 24.25 42.328125 
Q 22.078125 41.84375 20.734375 40.984375 
Q 19.390625 40.140625 18.796875 38.984375 
Q 18.21875 37.84375 18.21875 36.53125 
Q 18.21875 35.203125 18.71875 34.125 
Q 19.234375 33.0625 20.625 32.0625 
Q 22.015625 31.0625 24.5 30.046875 
Q 27 29.046875 31 27.875 
Q 35.359375 26.609375 38.328125 25.21875 
Q 41.3125 23.828125 43.15625 22.109375 
Q 45.015625 20.40625 45.8125 18.25 
Q 46.625 16.109375 46.625 13.375 
z
" id="Consolas-73"/>
      <path d="M 47.3125 0.6875 
Q 44.4375 -0.046875 41.359375 -0.359375 
Q 38.28125 -0.6875 35.109375 -0.6875 
Q 25.875 -0.6875 21.328125 3.484375 
Q 16.796875 7.671875 16.796875 16.3125 
L 16.796875 41.890625 
L 3.078125 41.890625 
L 3.078125 49.03125 
L 16.796875 49.03125 
L 16.796875 62.5 
L 25.296875 64.703125 
L 25.296875 49.03125 
L 47.3125 49.03125 
L 47.3125 41.890625 
L 25.296875 41.890625 
L 25.296875 17 
Q 25.296875 11.71875 28.09375 9.109375 
Q 30.90625 6.5 36.375 6.5 
Q 38.71875 6.5 41.5 6.859375 
Q 44.28125 7.234375 47.3125 8.015625 
z
" id="Consolas-74"/>
      <path d="M 50.484375 24.90625 
Q 50.484375 19.1875 48.875 14.421875 
Q 47.265625 9.671875 44.234375 6.265625 
Q 41.21875 2.875 36.859375 1 
Q 32.515625 -0.875 27 -0.875 
Q 21.734375 -0.875 17.546875 0.75 
Q 13.375 2.390625 10.46875 5.5625 
Q 7.5625 8.734375 6.03125 13.421875 
Q 4.5 18.109375 4.5 24.21875 
Q 4.5 29.9375 6.109375 34.640625 
Q 7.71875 39.359375 10.734375 42.75 
Q 13.765625 46.140625 18.109375 48.015625 
Q 22.46875 49.90625 27.984375 49.90625 
Q 33.25 49.90625 37.421875 48.265625 
Q 41.609375 46.625 44.5 43.46875 
Q 47.40625 40.328125 48.9375 35.640625 
Q 50.484375 30.953125 50.484375 24.90625 
z
M 41.796875 24.515625 
Q 41.796875 29.046875 40.796875 32.4375 
Q 39.796875 35.84375 37.9375 38.109375 
Q 36.078125 40.375 33.421875 41.515625 
Q 30.765625 42.671875 27.484375 42.671875 
Q 23.6875 42.671875 20.96875 41.1875 
Q 18.265625 39.703125 16.53125 37.203125 
Q 14.796875 34.71875 13.984375 31.421875 
Q 13.1875 28.125 13.1875 24.515625 
Q 13.1875 19.96875 14.1875 16.546875 
Q 15.1875 13.140625 17.03125 10.859375 
Q 18.890625 8.59375 21.53125 7.4375 
Q 24.171875 6.296875 27.484375 6.296875 
Q 31.296875 6.296875 34 7.78125 
Q 36.71875 9.28125 38.453125 11.765625 
Q 40.1875 14.265625 40.984375 17.546875 
Q 41.796875 20.84375 41.796875 24.515625 
z
" id="Consolas-6f"/>
      <path d="M 7.8125 49.03125 
L 15.375 49.03125 
L 15.71875 41.109375 
Q 17.875 43.65625 19.875 45.328125 
Q 21.875 47.015625 23.796875 48.046875 
Q 25.734375 49.078125 27.734375 49.484375 
Q 29.734375 49.90625 31.890625 49.90625 
Q 39.453125 49.90625 43.328125 45.4375 
Q 47.21875 40.96875 47.21875 31.984375 
L 47.21875 0 
L 38.71875 0 
L 38.71875 31.296875 
Q 38.71875 37.0625 36.5625 39.8125 
Q 34.421875 42.578125 30.171875 42.578125 
Q 28.609375 42.578125 27.125 42.109375 
Q 25.640625 41.65625 24.015625 40.5 
Q 22.40625 39.359375 20.53125 37.40625 
Q 18.65625 35.453125 16.3125 32.515625 
L 16.3125 0 
L 7.8125 0 
z
" id="Consolas-6e"/>
      <path id="Consolas-20"/>
      <path d="M 54.984375 63.8125 
L 31.890625 22.796875 
L 31.890625 0 
L 23.09375 0 
L 23.09375 23 
L 0 63.8125 
L 10.5 63.8125 
L 23.1875 40.484375 
L 27.875 31.109375 
L 32.171875 39.59375 
L 45.015625 63.8125 
z
" id="Consolas-59"/>
      <path d="M 49.21875 27.09375 
Q 49.21875 25.296875 49.171875 24.078125 
Q 49.125 22.859375 49.03125 21.78125 
L 14.59375 21.78125 
Q 14.59375 14.265625 18.796875 10.234375 
Q 23 6.203125 30.90625 6.203125 
Q 33.0625 6.203125 35.203125 6.375 
Q 37.359375 6.546875 39.359375 6.828125 
Q 41.359375 7.125 43.1875 7.484375 
Q 45.015625 7.859375 46.578125 8.296875 
L 46.578125 1.3125 
Q 43.109375 0.34375 38.734375 -0.265625 
Q 34.375 -0.875 29.6875 -0.875 
Q 23.390625 -0.875 18.84375 0.828125 
Q 14.3125 2.546875 11.40625 5.78125 
Q 8.5 9.03125 7.109375 13.734375 
Q 5.71875 18.453125 5.71875 24.421875 
Q 5.71875 29.59375 7.203125 34.203125 
Q 8.6875 38.8125 11.546875 42.296875 
Q 14.40625 45.796875 18.546875 47.84375 
Q 22.703125 49.90625 27.984375 49.90625 
Q 33.109375 49.90625 37.0625 48.296875 
Q 41.015625 46.6875 43.71875 43.71875 
Q 46.4375 40.765625 47.828125 36.546875 
Q 49.21875 32.328125 49.21875 27.09375 
z
M 40.375 28.328125 
Q 40.53125 31.59375 39.75 34.296875 
Q 38.96875 37.015625 37.328125 38.96875 
Q 35.6875 40.921875 33.25 42.015625 
Q 30.8125 43.109375 27.59375 43.109375 
Q 24.8125 43.109375 22.515625 42.03125 
Q 20.21875 40.96875 18.546875 39.015625 
Q 16.890625 37.0625 15.859375 34.328125 
Q 14.84375 31.59375 14.59375 28.328125 
z
" id="Consolas-65"/>
      <path d="M 39.3125 0 
L 39.109375 6.59375 
Q 35.109375 2.640625 30.984375 0.875 
Q 26.859375 -0.875 22.3125 -0.875 
Q 18.109375 -0.875 15.125 0.1875 
Q 12.15625 1.265625 10.21875 3.140625 
Q 8.296875 5.03125 7.390625 7.5625 
Q 6.5 10.109375 6.5 13.09375 
Q 6.5 20.453125 11.984375 24.625 
Q 17.484375 28.8125 28.21875 28.8125 
L 38.375 28.8125 
L 38.375 33.109375 
Q 38.375 37.453125 35.59375 40.0625 
Q 32.8125 42.671875 27.09375 42.671875 
Q 22.953125 42.671875 18.921875 41.75 
Q 14.890625 40.828125 10.59375 39.109375 
L 10.59375 46.78125 
Q 12.203125 47.359375 14.171875 47.921875 
Q 16.15625 48.484375 18.359375 48.921875 
Q 20.5625 49.359375 22.953125 49.625 
Q 25.34375 49.90625 27.78125 49.90625 
Q 32.234375 49.90625 35.796875 48.921875 
Q 39.359375 47.953125 41.8125 45.953125 
Q 44.28125 43.953125 45.59375 40.921875 
Q 46.921875 37.890625 46.921875 33.796875 
L 46.921875 0 
z
M 38.375 22.3125 
L 27.59375 22.3125 
Q 24.421875 22.3125 22.125 21.671875 
Q 19.828125 21.046875 18.359375 19.875 
Q 16.890625 18.703125 16.1875 17.0625 
Q 15.484375 15.4375 15.484375 13.375 
Q 15.484375 11.96875 15.921875 10.671875 
Q 16.359375 9.375 17.328125 8.375 
Q 18.3125 7.375 19.875 6.78125 
Q 21.4375 6.203125 23.6875 6.203125 
Q 26.609375 6.203125 30.390625 7.984375 
Q 34.1875 9.765625 38.375 13.625 
z
" id="Consolas-61"/>
      <path d="M 9.8125 49.03125 
L 17.578125 49.03125 
L 17.828125 39.984375 
Q 22.171875 45.21875 26.390625 47.5625 
Q 30.609375 49.90625 34.90625 49.90625 
Q 42.53125 49.90625 46.453125 44.96875 
Q 50.390625 40.046875 50.09375 30.328125 
L 41.5 30.328125 
Q 41.65625 36.765625 39.625 39.671875 
Q 37.59375 42.578125 33.6875 42.578125 
Q 31.984375 42.578125 30.25 41.96875 
Q 28.515625 41.359375 26.6875 40.015625 
Q 24.859375 38.671875 22.796875 36.5625 
Q 20.75 34.46875 18.40625 31.5 
L 18.40625 0 
L 9.8125 0 
z
" id="Consolas-72"/>
     </defs>
     <g style="fill:#8b0000;" transform="translate(159.319228 273.9975)scale(0.16 -0.16)">
      <use xlink:href="#Consolas-41"/>
      <use x="54.980469" xlink:href="#Consolas-63"/>
      <use x="109.960938" xlink:href="#Consolas-71"/>
      <use x="164.941406" xlink:href="#Consolas-75"/>
      <use x="219.921875" xlink:href="#Consolas-69"/>
      <use x="274.902344" xlink:href="#Consolas-73"/>
      <use x="329.882812" xlink:href="#Consolas-69"/>
      <use x="384.863281" xlink:href="#Consolas-74"/>
      <use x="439.84375" xlink:href="#Consolas-69"/>
      <use x="494.824219" xlink:href="#Consolas-6f"/>
      <use x="549.804688" xlink:href="#Consolas-6e"/>
      <use x="604.785156" xlink:href="#Consolas-20"/>
      <use x="659.765625" xlink:href="#Consolas-59"/>
      <use x="714.746094" xlink:href="#Consolas-65"/>
      <use x="769.726562" xlink:href="#Consolas-61"/>
      <use x="824.707031" xlink:href="#Consolas-72"/>
      <use x="879.6875" xlink:href="#Consolas-73"/>
     </g>
    </g>
   </g>
   <g id="matplotlib.axis_2">
    <g id="ytick_1">
     <g id="line2d_77">
      <path clip-path="url(#p30640801e2)" d="M 53.735 213.069811 
L 414.460956 213.069811 
" style="fill:none;stroke:#b0b0b0;stroke-linecap:square;stroke-width:0.8;"/>
     </g>
     <g id="line2d_78">
      <defs>
       <path d="M 0 0 
L -3.5 0 
" id="me25a706109" style="stroke:#000000;stroke-width:0.8;"/>
      </defs>
      <g>
       <use style="stroke:#000000;stroke-width:0.8;" x="53.735" xlink:href="#me25a706109" y="213.069811"/>
      </g>
     </g>
     <g id="text_40">
      <!-- $\mathdefault{10^{0}}$ -->
      <g transform="translate(29.135 216.869029)scale(0.1 -0.1)">
       <use transform="translate(0 0.765625)" xlink:href="#DejaVuSans-31"/>
       <use transform="translate(63.623047 0.765625)" xlink:href="#DejaVuSans-30"/>
       <use transform="translate(128.203125 39.046875)scale(0.7)" xlink:href="#DejaVuSans-30"/>
      </g>
     </g>
    </g>
    <g id="ytick_2">
     <g id="line2d_79">
      <path clip-path="url(#p30640801e2)" d="M 53.735 178.317155 
L 414.460956 178.317155 
" style="fill:none;stroke:#b0b0b0;stroke-linecap:square;stroke-width:0.8;"/>
     </g>
     <g id="line2d_80">
      <g>
       <use style="stroke:#000000;stroke-width:0.8;" x="53.735" xlink:href="#me25a706109" y="178.317155"/>
      </g>
     </g>
     <g id="text_41">
      <!-- $\mathdefault{10^{1}}$ -->
      <g transform="translate(29.135 182.116374)scale(0.1 -0.1)">
       <use transform="translate(0 0.684375)" xlink:href="#DejaVuSans-31"/>
       <use transform="translate(63.623047 0.684375)" xlink:href="#DejaVuSans-30"/>
       <use transform="translate(128.203125 38.965625)scale(0.7)" xlink:href="#DejaVuSans-31"/>
      </g>
     </g>
    </g>
    <g id="ytick_3">
     <g id="line2d_81">
      <path clip-path="url(#p30640801e2)" d="M 53.735 143.5645 
L 414.460956 143.5645 
" style="fill:none;stroke:#b0b0b0;stroke-linecap:square;stroke-width:0.8;"/>
     </g>
     <g id="line2d_82">
      <g>
       <use style="stroke:#000000;stroke-width:0.8;" x="53.735" xlink:href="#me25a706109" y="143.5645"/>
      </g>
     </g>
     <g id="text_42">
      <!-- $\mathdefault{10^{2}}$ -->
      <g transform="translate(29.135 147.363719)scale(0.1 -0.1)">
       <use transform="translate(0 0.765625)" xlink:href="#DejaVuSans-31"/>
       <use transform="translate(63.623047 0.765625)" xlink:href="#DejaVuSans-30"/>
       <use transform="translate(128.203125 39.046875)scale(0.7)" xlink:href="#DejaVuSans-32"/>
      </g>
     </g>
    </g>
    <g id="ytick_4">
     <g id="line2d_83">
      <path clip-path="url(#p30640801e2)" d="M 53.735 108.811845 
L 414.460956 108.811845 
" style="fill:none;stroke:#b0b0b0;stroke-linecap:square;stroke-width:0.8;"/>
     </g>
     <g id="line2d_84">
      <g>
       <use style="stroke:#000000;stroke-width:0.8;" x="53.735" xlink:href="#me25a706109" y="108.811845"/>
      </g>
     </g>
     <g id="text_43">
      <!-- $\mathdefault{10^{3}}$ -->
      <g transform="translate(29.135 112.611064)scale(0.1 -0.1)">
       <use transform="translate(0 0.765625)" xlink:href="#DejaVuSans-31"/>
       <use transform="translate(63.623047 0.765625)" xlink:href="#DejaVuSans-30"/>
       <use transform="translate(128.203125 39.046875)scale(0.7)" xlink:href="#DejaVuSans-33"/>
      </g>
     </g>
    </g>
    <g id="ytick_5">
     <g id="line2d_85">
      <path clip-path="url(#p30640801e2)" d="M 53.735 74.05919 
L 414.460956 74.05919 
" style="fill:none;stroke:#b0b0b0;stroke-linecap:square;stroke-width:0.8;"/>
     </g>
     <g id="line2d_86">
      <g>
       <use style="stroke:#000000;stroke-width:0.8;" x="53.735" xlink:href="#me25a706109" y="74.05919"/>
      </g>
     </g>
     <g id="text_44">
      <!-- $\mathdefault{10^{4}}$ -->
      <g transform="translate(29.135 77.858409)scale(0.1 -0.1)">
       <use transform="translate(0 0.684375)" xlink:href="#DejaVuSans-31"/>
       <use transform="translate(63.623047 0.684375)" xlink:href="#DejaVuSans-30"/>
       <use transform="translate(128.203125 38.965625)scale(0.7)" xlink:href="#DejaVuSans-34"/>
      </g>
     </g>
    </g>
    <g id="ytick_6">
     <g id="line2d_87">
      <defs>
       <path d="M 0 0 
L -2 0 
" id="m7363e94d2f" style="stroke:#000000;stroke-width:0.6;"/>
      </defs>
      <g>
       <use style="stroke:#000000;stroke-width:0.6;" x="53.735" xlink:href="#m7363e94d2f" y="220.779644"/>
      </g>
     </g>
    </g>
    <g id="ytick_7">
     <g id="line2d_88">
      <g>
       <use style="stroke:#000000;stroke-width:0.6;" x="53.735" xlink:href="#m7363e94d2f" y="218.453065"/>
      </g>
     </g>
    </g>
    <g id="ytick_8">
     <g id="line2d_89">
      <g>
       <use style="stroke:#000000;stroke-width:0.6;" x="53.735" xlink:href="#m7363e94d2f" y="216.437691"/>
      </g>
     </g>
    </g>
    <g id="ytick_9">
     <g id="line2d_90">
      <g>
       <use style="stroke:#000000;stroke-width:0.6;" x="53.735" xlink:href="#m7363e94d2f" y="214.660005"/>
      </g>
     </g>
    </g>
    <g id="ytick_10">
     <g id="line2d_91">
      <g>
       <use style="stroke:#000000;stroke-width:0.6;" x="53.735" xlink:href="#m7363e94d2f" y="202.608219"/>
      </g>
     </g>
    </g>
    <g id="ytick_11">
     <g id="line2d_92">
      <g>
       <use style="stroke:#000000;stroke-width:0.6;" x="53.735" xlink:href="#m7363e94d2f" y="196.48858"/>
      </g>
     </g>
    </g>
    <g id="ytick_12">
     <g id="line2d_93">
      <g>
       <use style="stroke:#000000;stroke-width:0.6;" x="53.735" xlink:href="#m7363e94d2f" y="192.146627"/>
      </g>
     </g>
    </g>
    <g id="ytick_13">
     <g id="line2d_94">
      <g>
       <use style="stroke:#000000;stroke-width:0.6;" x="53.735" xlink:href="#m7363e94d2f" y="188.778747"/>
      </g>
     </g>
    </g>
    <g id="ytick_14">
     <g id="line2d_95">
      <g>
       <use style="stroke:#000000;stroke-width:0.6;" x="53.735" xlink:href="#m7363e94d2f" y="186.026989"/>
      </g>
     </g>
    </g>
    <g id="ytick_15">
     <g id="line2d_96">
      <g>
       <use style="stroke:#000000;stroke-width:0.6;" x="53.735" xlink:href="#m7363e94d2f" y="183.70041"/>
      </g>
     </g>
    </g>
    <g id="ytick_16">
     <g id="line2d_97">
      <g>
       <use style="stroke:#000000;stroke-width:0.6;" x="53.735" xlink:href="#m7363e94d2f" y="181.685036"/>
      </g>
     </g>
    </g>
    <g id="ytick_17">
     <g id="line2d_98">
      <g>
       <use style="stroke:#000000;stroke-width:0.6;" x="53.735" xlink:href="#m7363e94d2f" y="179.90735"/>
      </g>
     </g>
    </g>
    <g id="ytick_18">
     <g id="line2d_99">
      <g>
       <use style="stroke:#000000;stroke-width:0.6;" x="53.735" xlink:href="#m7363e94d2f" y="167.855564"/>
      </g>
     </g>
    </g>
    <g id="ytick_19">
     <g id="line2d_100">
      <g>
       <use style="stroke:#000000;stroke-width:0.6;" x="53.735" xlink:href="#m7363e94d2f" y="161.735925"/>
      </g>
     </g>
    </g>
    <g id="ytick_20">
     <g id="line2d_101">
      <g>
       <use style="stroke:#000000;stroke-width:0.6;" x="53.735" xlink:href="#m7363e94d2f" y="157.393972"/>
      </g>
     </g>
    </g>
    <g id="ytick_21">
     <g id="line2d_102">
      <g>
       <use style="stroke:#000000;stroke-width:0.6;" x="53.735" xlink:href="#m7363e94d2f" y="154.026092"/>
      </g>
     </g>
    </g>
    <g id="ytick_22">
     <g id="line2d_103">
      <g>
       <use style="stroke:#000000;stroke-width:0.6;" x="53.735" xlink:href="#m7363e94d2f" y="151.274333"/>
      </g>
     </g>
    </g>
    <g id="ytick_23">
     <g id="line2d_104">
      <g>
       <use style="stroke:#000000;stroke-width:0.6;" x="53.735" xlink:href="#m7363e94d2f" y="148.947755"/>
      </g>
     </g>
    </g>
    <g id="ytick_24">
     <g id="line2d_105">
      <g>
       <use style="stroke:#000000;stroke-width:0.6;" x="53.735" xlink:href="#m7363e94d2f" y="146.932381"/>
      </g>
     </g>
    </g>
    <g id="ytick_25">
     <g id="line2d_106">
      <g>
       <use style="stroke:#000000;stroke-width:0.6;" x="53.735" xlink:href="#m7363e94d2f" y="145.154695"/>
      </g>
     </g>
    </g>
    <g id="ytick_26">
     <g id="line2d_107">
      <g>
       <use style="stroke:#000000;stroke-width:0.6;" x="53.735" xlink:href="#m7363e94d2f" y="133.102909"/>
      </g>
     </g>
    </g>
    <g id="ytick_27">
     <g id="line2d_108">
      <g>
       <use style="stroke:#000000;stroke-width:0.6;" x="53.735" xlink:href="#m7363e94d2f" y="126.98327"/>
      </g>
     </g>
    </g>
    <g id="ytick_28">
     <g id="line2d_109">
      <g>
       <use style="stroke:#000000;stroke-width:0.6;" x="53.735" xlink:href="#m7363e94d2f" y="122.641317"/>
      </g>
     </g>
    </g>
    <g id="ytick_29">
     <g id="line2d_110">
      <g>
       <use style="stroke:#000000;stroke-width:0.6;" x="53.735" xlink:href="#m7363e94d2f" y="119.273437"/>
      </g>
     </g>
    </g>
    <g id="ytick_30">
     <g id="line2d_111">
      <g>
       <use style="stroke:#000000;stroke-width:0.6;" x="53.735" xlink:href="#m7363e94d2f" y="116.521678"/>
      </g>
     </g>
    </g>
    <g id="ytick_31">
     <g id="line2d_112">
      <g>
       <use style="stroke:#000000;stroke-width:0.6;" x="53.735" xlink:href="#m7363e94d2f" y="114.1951"/>
      </g>
     </g>
    </g>
    <g id="ytick_32">
     <g id="line2d_113">
      <g>
       <use style="stroke:#000000;stroke-width:0.6;" x="53.735" xlink:href="#m7363e94d2f" y="112.179725"/>
      </g>
     </g>
    </g>
    <g id="ytick_33">
     <g id="line2d_114">
      <g>
       <use style="stroke:#000000;stroke-width:0.6;" x="53.735" xlink:href="#m7363e94d2f" y="110.402039"/>
      </g>
     </g>
    </g>
    <g id="ytick_34">
     <g id="line2d_115">
      <g>
       <use style="stroke:#000000;stroke-width:0.6;" x="53.735" xlink:href="#m7363e94d2f" y="98.350254"/>
      </g>
     </g>
    </g>
    <g id="ytick_35">
     <g id="line2d_116">
      <g>
       <use style="stroke:#000000;stroke-width:0.6;" x="53.735" xlink:href="#m7363e94d2f" y="92.230615"/>
      </g>
     </g>
    </g>
    <g id="ytick_36">
     <g id="line2d_117">
      <g>
       <use style="stroke:#000000;stroke-width:0.6;" x="53.735" xlink:href="#m7363e94d2f" y="87.888662"/>
      </g>
     </g>
    </g>
    <g id="ytick_37">
     <g id="line2d_118">
      <g>
       <use style="stroke:#000000;stroke-width:0.6;" x="53.735" xlink:href="#m7363e94d2f" y="84.520782"/>
      </g>
     </g>
    </g>
    <g id="ytick_38">
     <g id="line2d_119">
      <g>
       <use style="stroke:#000000;stroke-width:0.6;" x="53.735" xlink:href="#m7363e94d2f" y="81.769023"/>
      </g>
     </g>
    </g>
    <g id="ytick_39">
     <g id="line2d_120">
      <g>
       <use style="stroke:#000000;stroke-width:0.6;" x="53.735" xlink:href="#m7363e94d2f" y="79.442444"/>
      </g>
     </g>
    </g>
    <g id="ytick_40">
     <g id="line2d_121">
      <g>
       <use style="stroke:#000000;stroke-width:0.6;" x="53.735" xlink:href="#m7363e94d2f" y="77.42707"/>
      </g>
     </g>
    </g>
    <g id="ytick_41">
     <g id="line2d_122">
      <g>
       <use style="stroke:#000000;stroke-width:0.6;" x="53.735" xlink:href="#m7363e94d2f" y="75.649384"/>
      </g>
     </g>
    </g>
    <g id="ytick_42">
     <g id="line2d_123">
      <g>
       <use style="stroke:#000000;stroke-width:0.6;" x="53.735" xlink:href="#m7363e94d2f" y="63.597598"/>
      </g>
     </g>
    </g>
    <g id="ytick_43">
     <g id="line2d_124">
      <g>
       <use style="stroke:#000000;stroke-width:0.6;" x="53.735" xlink:href="#m7363e94d2f" y="57.47796"/>
      </g>
     </g>
    </g>
    <g id="ytick_44">
     <g id="line2d_125">
      <g>
       <use style="stroke:#000000;stroke-width:0.6;" x="53.735" xlink:href="#m7363e94d2f" y="53.136007"/>
      </g>
     </g>
    </g>
    <g id="ytick_45">
     <g id="line2d_126">
      <g>
       <use style="stroke:#000000;stroke-width:0.6;" x="53.735" xlink:href="#m7363e94d2f" y="49.768127"/>
      </g>
     </g>
    </g>
    <g id="ytick_46">
     <g id="line2d_127">
      <g>
       <use style="stroke:#000000;stroke-width:0.6;" x="53.735" xlink:href="#m7363e94d2f" y="47.016368"/>
      </g>
     </g>
    </g>
    <g id="text_45">
     <!-- Artworks Acquired -->
     <defs>
      <path d="M 53.21875 49.03125 
L 46.09375 0 
L 35.796875 0 
L 28.71875 20.515625 
L 27.296875 25.484375 
L 25.6875 20.21875 
L 18.890625 0 
L 8.890625 0 
L 1.8125 49.03125 
L 10.109375 49.03125 
L 14.203125 15.71875 
L 15.09375 8.296875 
L 17.1875 14.796875 
L 24.3125 36.8125 
L 30.421875 36.8125 
L 38.09375 15.09375 
L 40.28125 8.59375 
L 41.015625 15.484375 
L 44.828125 49.03125 
z
" id="Consolas-77"/>
      <path d="M 51.90625 0 
L 40.234375 0 
L 17.390625 26.265625 
L 17.390625 0 
L 8.890625 0 
L 8.890625 69 
L 17.390625 69 
L 17.390625 26.609375 
L 39.40625 49.03125 
L 50.640625 49.03125 
L 27.640625 26.421875 
z
" id="Consolas-6b"/>
      <path d="M 5.328125 23.484375 
Q 5.328125 29.734375 7.03125 34.59375 
Q 8.734375 39.453125 11.890625 42.796875 
Q 15.046875 46.140625 19.453125 47.875 
Q 23.875 49.609375 29.296875 49.609375 
Q 31.640625 49.609375 33.90625 49.3125 
Q 36.1875 49.03125 38.375 48.390625 
L 38.375 69 
L 46.921875 69 
L 46.921875 0 
L 39.3125 0 
L 39.015625 9.28125 
Q 35.453125 4.109375 31.296875 1.609375 
Q 27.15625 -0.875 22.3125 -0.875 
Q 18.109375 -0.875 14.90625 0.875 
Q 11.71875 2.640625 9.59375 5.828125 
Q 7.46875 9.03125 6.390625 13.515625 
Q 5.328125 18.015625 5.328125 23.484375 
z
M 14.015625 24.03125 
Q 14.015625 15.140625 16.625 10.765625 
Q 19.234375 6.390625 24.03125 6.390625 
Q 27.25 6.390625 30.828125 9.265625 
Q 34.421875 12.15625 38.375 17.828125 
L 38.375 40.578125 
Q 36.28125 41.546875 33.734375 42.0625 
Q 31.203125 42.578125 28.71875 42.578125 
Q 21.78125 42.578125 17.890625 38.078125 
Q 14.015625 33.59375 14.015625 24.03125 
z
" id="Consolas-64"/>
     </defs>
     <g style="fill:#8b0000;" transform="translate(21.9325 208.29002)rotate(-90)scale(0.16 -0.16)">
      <use xlink:href="#Consolas-41"/>
      <use x="54.980469" xlink:href="#Consolas-72"/>
      <use x="109.960938" xlink:href="#Consolas-74"/>
      <use x="164.941406" xlink:href="#Consolas-77"/>
      <use x="219.921875" xlink:href="#Consolas-6f"/>
      <use x="274.902344" xlink:href="#Consolas-72"/>
      <use x="329.882812" xlink:href="#Consolas-6b"/>
      <use x="384.863281" xlink:href="#Consolas-73"/>
      <use x="439.84375" xlink:href="#Consolas-20"/>
      <use x="494.824219" xlink:href="#Consolas-41"/>
      <use x="549.804688" xlink:href="#Consolas-63"/>
      <use x="604.785156" xlink:href="#Consolas-71"/>
      <use x="659.765625" xlink:href="#Consolas-75"/>
      <use x="714.746094" xlink:href="#Consolas-69"/>
      <use x="769.726562" xlink:href="#Consolas-72"/>
      <use x="824.707031" xlink:href="#Consolas-65"/>
      <use x="879.6875" xlink:href="#Consolas-64"/>
     </g>
    </g>
   </g>
   <g id="line2d_128">
    <path clip-path="url(#p30640801e2)" d="M 53.735 213.069811 
L 55.633558 202.608219 
L 59.430673 192.146627 
L 61.329231 213.069811 
L 63.227788 196.48858 
L 67.024904 202.608219 
L 74.619134 213.069811 
L 76.517692 213.069811 
L 78.41625 196.48858 
L 80.314807 192.146627 
L 86.01048 202.608219 
L 87.909038 202.608219 
L 89.807596 213.069811 
L 93.604711 213.069811 
L 99.300384 137.647454 
L 103.097499 213.069811 
L 104.996057 213.069811 
L 110.69173 196.48858 
L 112.590288 170.308444 
L 114.488845 213.069811 
L 116.387403 53.952729 
L 118.285961 202.608219 
L 120.184518 192.146627 
L 122.083076 170.308444 
L 123.981634 202.608219 
L 125.880191 192.146627 
L 129.677307 213.069811 
L 131.575864 202.608219 
L 135.37298 202.608219 
L 137.271537 172.197517 
L 139.170095 178.317155 
L 141.068653 188.778747 
L 142.96721 213.069811 
L 144.865768 179.90735 
L 148.662883 213.069811 
L 150.561441 196.48858 
L 154.358556 196.48858 
L 156.257114 176.87865 
L 158.155672 172.197517 
L 160.054229 154.331009 
L 161.952787 186.026989 
L 163.851345 196.48858 
L 165.749902 186.026989 
L 167.64846 196.48858 
L 169.547018 179.90735 
L 171.445575 166.417058 
L 173.344133 179.90735 
L 175.242691 175.565397 
L 177.141248 107.932399 
L 179.039806 179.90735 
L 180.938364 181.685036 
L 182.836921 167.119179 
L 184.735479 173.238818 
L 186.634037 179.90735 
L 188.532594 146.932381 
L 190.431152 176.87865 
L 192.32971 158.570637 
L 194.228267 158.570637 
L 196.126825 152.587586 
L 198.025383 168.629728 
L 199.92394 148.109045 
L 201.822498 179.90735 
L 203.721056 175.565397 
L 205.619613 178.317155 
L 207.518171 167.855564 
L 209.416729 150.300261 
L 211.315286 170.308444 
L 213.213844 159.409346 
L 215.112402 140.440059 
L 217.010959 154.026092 
L 218.909517 145.840853 
L 220.808075 162.777227 
L 222.706632 146.744889 
L 224.60519 164.487684 
L 226.503748 164.487684 
L 228.402305 165.103805 
L 230.300863 158.570637 
L 234.097978 141.06641 
L 235.996536 139.957045 
L 237.895094 157.021289 
L 239.793651 165.103805 
L 241.692209 141.455089 
L 243.590767 157.776091 
L 245.489324 131.258292 
L 247.387882 131.191656 
L 249.28644 148.733668 
L 251.184997 131.325223 
L 253.083555 158.168136 
L 254.982113 154.331009 
L 256.88067 150.066258 
L 258.779228 156.302445 
L 260.677786 154.642214 
L 262.576343 154.026092 
L 264.474901 158.570637 
L 266.373459 157.776091 
L 268.272016 161.241032 
L 270.170574 157.393972 
L 272.069132 150.77944 
L 273.967689 147.122231 
L 275.866247 132.583692 
L 279.663362 153.146646 
L 281.56192 160.297419 
L 283.460478 157.393972 
L 285.359035 156.657588 
L 287.257593 139.838669 
L 289.156151 155.955466 
L 291.054708 157.393972 
L 292.953266 155.616286 
L 294.851824 157.393972 
L 296.750381 154.642214 
L 298.648939 158.168136 
L 300.547497 151.786006 
L 302.446054 156.657588 
L 304.344612 146.744889 
L 306.24317 158.570637 
L 308.141727 153.727213 
L 310.040285 150.066258 
L 311.938843 144.822969 
L 313.8374 146.744889 
L 315.735958 147.509249 
L 317.634516 144.822969 
L 319.533073 148.522575 
L 321.431631 146.195996 
L 323.330189 144.659802 
L 325.228746 145.840853 
L 327.127304 139.489011 
L 329.025862 145.666367 
L 330.924419 148.733668 
L 332.822977 135.204775 
L 334.721535 135.467267 
L 336.620092 128.078571 
L 338.51865 138.703331 
L 340.417208 140.19662 
L 342.315765 92.000947 
L 344.214323 116.346614 
L 346.112881 126.586066 
L 348.011438 124.961608 
L 349.909996 106.493893 
L 351.808554 119.394665 
L 353.707111 123.415481 
L 355.605669 116.597332 
L 357.504227 118.365541 
L 359.402784 130.288394 
L 361.301342 123.940855 
L 363.1999 108.872338 
L 365.098457 131.802239 
L 366.997015 107.332233 
L 368.895573 124.442604 
L 370.79413 129.495454 
L 372.692688 132.081744 
L 374.591246 129.02742 
L 376.489803 134.777186 
L 378.388361 128.296523 
L 380.286919 132.152437 
L 382.185476 114.478031 
L 384.084034 89.040872 
L 385.982592 123.858829 
L 387.881149 127.494942 
L 389.779707 130.101675 
L 391.678264 126.488377 
L 393.576822 126.056436 
L 395.47538 123.375815 
L 397.373937 115.477023 
L 399.272495 125.408176 
L 401.171053 130.414169 
L 403.06961 125.408176 
L 404.968168 112.426999 
L 406.866726 104.126688 
L 408.765283 122.946234 
L 410.663841 126.009197 
L 412.562399 118.856644 
L 414.460956 120.59767 
L 414.460956 120.59767 
" style="fill:none;stroke:#1f77b4;stroke-linecap:square;stroke-width:1.5;"/>
   </g>
   <g id="patch_3">
    <path d="M 53.735 221.025665 
L 53.735 45.996875 
" style="fill:none;stroke:#000000;stroke-linecap:square;stroke-linejoin:miter;stroke-width:0.8;"/>
   </g>
   <g id="patch_4">
    <path d="M 414.460956 221.025665 
L 414.460956 45.996875 
" style="fill:none;stroke:#000000;stroke-linecap:square;stroke-linejoin:miter;stroke-width:0.8;"/>
   </g>
   <g id="patch_5">
    <path d="M 53.735 221.025665 
L 414.460956 221.025665 
" style="fill:none;stroke:#000000;stroke-linecap:square;stroke-linejoin:miter;stroke-width:0.8;"/>
   </g>
   <g id="patch_6">
    <path d="M 53.735 45.996875 
L 414.460956 45.996875 
" style="fill:none;stroke:#000000;stroke-linecap:square;stroke-linejoin:miter;stroke-width:0.8;"/>
   </g>
   <g id="text_46">
    <!-- Tate Galery Acquisitions -->
    <defs>
     <path d="M -0.296875 72.90625 
L 61.375 72.90625 
L 61.375 64.59375 
L 35.5 64.59375 
L 35.5 0 
L 25.59375 0 
L 25.59375 64.59375 
L -0.296875 64.59375 
z
" id="DejaVuSans-54"/>
     <path d="M 34.28125 27.484375 
Q 23.390625 27.484375 19.1875 25 
Q 14.984375 22.515625 14.984375 16.5 
Q 14.984375 11.71875 18.140625 8.90625 
Q 21.296875 6.109375 26.703125 6.109375 
Q 34.1875 6.109375 38.703125 11.40625 
Q 43.21875 16.703125 43.21875 25.484375 
L 43.21875 27.484375 
z
M 52.203125 31.203125 
L 52.203125 0 
L 43.21875 0 
L 43.21875 8.296875 
Q 40.140625 3.328125 35.546875 0.953125 
Q 30.953125 -1.421875 24.3125 -1.421875 
Q 15.921875 -1.421875 10.953125 3.296875 
Q 6 8.015625 6 15.921875 
Q 6 25.140625 12.171875 29.828125 
Q 18.359375 34.515625 30.609375 34.515625 
L 43.21875 34.515625 
L 43.21875 35.40625 
Q 43.21875 41.609375 39.140625 45 
Q 35.0625 48.390625 27.6875 48.390625 
Q 23 48.390625 18.546875 47.265625 
Q 14.109375 46.140625 10.015625 43.890625 
L 10.015625 52.203125 
Q 14.9375 54.109375 19.578125 55.046875 
Q 24.21875 56 28.609375 56 
Q 40.484375 56 46.34375 49.84375 
Q 52.203125 43.703125 52.203125 31.203125 
z
" id="DejaVuSans-61"/>
     <path d="M 18.3125 70.21875 
L 18.3125 54.6875 
L 36.8125 54.6875 
L 36.8125 47.703125 
L 18.3125 47.703125 
L 18.3125 18.015625 
Q 18.3125 11.328125 20.140625 9.421875 
Q 21.96875 7.515625 27.59375 7.515625 
L 36.8125 7.515625 
L 36.8125 0 
L 27.59375 0 
Q 17.1875 0 13.234375 3.875 
Q 9.28125 7.765625 9.28125 18.015625 
L 9.28125 47.703125 
L 2.6875 47.703125 
L 2.6875 54.6875 
L 9.28125 54.6875 
L 9.28125 70.21875 
z
" id="DejaVuSans-74"/>
     <path d="M 56.203125 29.59375 
L 56.203125 25.203125 
L 14.890625 25.203125 
Q 15.484375 15.921875 20.484375 11.0625 
Q 25.484375 6.203125 34.421875 6.203125 
Q 39.59375 6.203125 44.453125 7.46875 
Q 49.3125 8.734375 54.109375 11.28125 
L 54.109375 2.78125 
Q 49.265625 0.734375 44.1875 -0.34375 
Q 39.109375 -1.421875 33.890625 -1.421875 
Q 20.796875 -1.421875 13.15625 6.1875 
Q 5.515625 13.8125 5.515625 26.8125 
Q 5.515625 40.234375 12.765625 48.109375 
Q 20.015625 56 32.328125 56 
Q 43.359375 56 49.78125 48.890625 
Q 56.203125 41.796875 56.203125 29.59375 
z
M 47.21875 32.234375 
Q 47.125 39.59375 43.09375 43.984375 
Q 39.0625 48.390625 32.421875 48.390625 
Q 24.90625 48.390625 20.390625 44.140625 
Q 15.875 39.890625 15.1875 32.171875 
z
" id="DejaVuSans-65"/>
     <path id="DejaVuSans-20"/>
     <path d="M 59.515625 10.40625 
L 59.515625 29.984375 
L 43.40625 29.984375 
L 43.40625 38.09375 
L 69.28125 38.09375 
L 69.28125 6.78125 
Q 63.578125 2.734375 56.6875 0.65625 
Q 49.8125 -1.421875 42 -1.421875 
Q 24.90625 -1.421875 15.25 8.5625 
Q 5.609375 18.5625 5.609375 36.375 
Q 5.609375 54.25 15.25 64.234375 
Q 24.90625 74.21875 42 74.21875 
Q 49.125 74.21875 55.546875 72.453125 
Q 61.96875 70.703125 67.390625 67.28125 
L 67.390625 56.78125 
Q 61.921875 61.421875 55.765625 63.765625 
Q 49.609375 66.109375 42.828125 66.109375 
Q 29.4375 66.109375 22.71875 58.640625 
Q 16.015625 51.171875 16.015625 36.375 
Q 16.015625 21.625 22.71875 14.15625 
Q 29.4375 6.6875 42.828125 6.6875 
Q 48.046875 6.6875 52.140625 7.59375 
Q 56.25 8.5 59.515625 10.40625 
z
" id="DejaVuSans-47"/>
     <path d="M 9.421875 75.984375 
L 18.40625 75.984375 
L 18.40625 0 
L 9.421875 0 
z
" id="DejaVuSans-6c"/>
     <path d="M 41.109375 46.296875 
Q 39.59375 47.171875 37.8125 47.578125 
Q 36.03125 48 33.890625 48 
Q 26.265625 48 22.1875 43.046875 
Q 18.109375 38.09375 18.109375 28.8125 
L 18.109375 0 
L 9.078125 0 
L 9.078125 54.6875 
L 18.109375 54.6875 
L 18.109375 46.1875 
Q 20.953125 51.171875 25.484375 53.578125 
Q 30.03125 56 36.53125 56 
Q 37.453125 56 38.578125 55.875 
Q 39.703125 55.765625 41.0625 55.515625 
z
" id="DejaVuSans-72"/>
     <path d="M 32.171875 -5.078125 
Q 28.375 -14.84375 24.75 -17.8125 
Q 21.140625 -20.796875 15.09375 -20.796875 
L 7.90625 -20.796875 
L 7.90625 -13.28125 
L 13.1875 -13.28125 
Q 16.890625 -13.28125 18.9375 -11.515625 
Q 21 -9.765625 23.484375 -3.21875 
L 25.09375 0.875 
L 2.984375 54.6875 
L 12.5 54.6875 
L 29.59375 11.921875 
L 46.6875 54.6875 
L 56.203125 54.6875 
z
" id="DejaVuSans-79"/>
     <path d="M 34.1875 63.1875 
L 20.796875 26.90625 
L 47.609375 26.90625 
z
M 28.609375 72.90625 
L 39.796875 72.90625 
L 67.578125 0 
L 57.328125 0 
L 50.6875 18.703125 
L 17.828125 18.703125 
L 11.1875 0 
L 0.78125 0 
z
" id="DejaVuSans-41"/>
     <path d="M 48.78125 52.59375 
L 48.78125 44.1875 
Q 44.96875 46.296875 41.140625 47.34375 
Q 37.3125 48.390625 33.40625 48.390625 
Q 24.65625 48.390625 19.8125 42.84375 
Q 14.984375 37.3125 14.984375 27.296875 
Q 14.984375 17.28125 19.8125 11.734375 
Q 24.65625 6.203125 33.40625 6.203125 
Q 37.3125 6.203125 41.140625 7.25 
Q 44.96875 8.296875 48.78125 10.40625 
L 48.78125 2.09375 
Q 45.015625 0.34375 40.984375 -0.53125 
Q 36.96875 -1.421875 32.421875 -1.421875 
Q 20.0625 -1.421875 12.78125 6.34375 
Q 5.515625 14.109375 5.515625 27.296875 
Q 5.515625 40.671875 12.859375 48.328125 
Q 20.21875 56 33.015625 56 
Q 37.15625 56 41.109375 55.140625 
Q 45.0625 54.296875 48.78125 52.59375 
z
" id="DejaVuSans-63"/>
     <path d="M 14.796875 27.296875 
Q 14.796875 17.390625 18.875 11.75 
Q 22.953125 6.109375 30.078125 6.109375 
Q 37.203125 6.109375 41.296875 11.75 
Q 45.40625 17.390625 45.40625 27.296875 
Q 45.40625 37.203125 41.296875 42.84375 
Q 37.203125 48.484375 30.078125 48.484375 
Q 22.953125 48.484375 18.875 42.84375 
Q 14.796875 37.203125 14.796875 27.296875 
z
M 45.40625 8.203125 
Q 42.578125 3.328125 38.25 0.953125 
Q 33.9375 -1.421875 27.875 -1.421875 
Q 17.96875 -1.421875 11.734375 6.484375 
Q 5.515625 14.40625 5.515625 27.296875 
Q 5.515625 40.1875 11.734375 48.09375 
Q 17.96875 56 27.875 56 
Q 33.9375 56 38.25 53.625 
Q 42.578125 51.265625 45.40625 46.390625 
L 45.40625 54.6875 
L 54.390625 54.6875 
L 54.390625 -20.796875 
L 45.40625 -20.796875 
z
" id="DejaVuSans-71"/>
     <path d="M 8.5 21.578125 
L 8.5 54.6875 
L 17.484375 54.6875 
L 17.484375 21.921875 
Q 17.484375 14.15625 20.5 10.265625 
Q 23.53125 6.390625 29.59375 6.390625 
Q 36.859375 6.390625 41.078125 11.03125 
Q 45.3125 15.671875 45.3125 23.6875 
L 45.3125 54.6875 
L 54.296875 54.6875 
L 54.296875 0 
L 45.3125 0 
L 45.3125 8.40625 
Q 42.046875 3.421875 37.71875 1 
Q 33.40625 -1.421875 27.6875 -1.421875 
Q 18.265625 -1.421875 13.375 4.4375 
Q 8.5 10.296875 8.5 21.578125 
z
M 31.109375 56 
z
" id="DejaVuSans-75"/>
     <path d="M 9.421875 54.6875 
L 18.40625 54.6875 
L 18.40625 0 
L 9.421875 0 
z
M 9.421875 75.984375 
L 18.40625 75.984375 
L 18.40625 64.59375 
L 9.421875 64.59375 
z
" id="DejaVuSans-69"/>
     <path d="M 44.28125 53.078125 
L 44.28125 44.578125 
Q 40.484375 46.53125 36.375 47.5 
Q 32.28125 48.484375 27.875 48.484375 
Q 21.1875 48.484375 17.84375 46.4375 
Q 14.5 44.390625 14.5 40.28125 
Q 14.5 37.15625 16.890625 35.375 
Q 19.28125 33.59375 26.515625 31.984375 
L 29.59375 31.296875 
Q 39.15625 29.25 43.1875 25.515625 
Q 47.21875 21.78125 47.21875 15.09375 
Q 47.21875 7.46875 41.1875 3.015625 
Q 35.15625 -1.421875 24.609375 -1.421875 
Q 20.21875 -1.421875 15.453125 -0.5625 
Q 10.6875 0.296875 5.421875 2 
L 5.421875 11.28125 
Q 10.40625 8.6875 15.234375 7.390625 
Q 20.0625 6.109375 24.8125 6.109375 
Q 31.15625 6.109375 34.5625 8.28125 
Q 37.984375 10.453125 37.984375 14.40625 
Q 37.984375 18.0625 35.515625 20.015625 
Q 33.0625 21.96875 24.703125 23.78125 
L 21.578125 24.515625 
Q 13.234375 26.265625 9.515625 29.90625 
Q 5.8125 33.546875 5.8125 39.890625 
Q 5.8125 47.609375 11.28125 51.796875 
Q 16.75 56 26.8125 56 
Q 31.78125 56 36.171875 55.265625 
Q 40.578125 54.546875 44.28125 53.078125 
z
" id="DejaVuSans-73"/>
     <path d="M 30.609375 48.390625 
Q 23.390625 48.390625 19.1875 42.75 
Q 14.984375 37.109375 14.984375 27.296875 
Q 14.984375 17.484375 19.15625 11.84375 
Q 23.34375 6.203125 30.609375 6.203125 
Q 37.796875 6.203125 41.984375 11.859375 
Q 46.1875 17.53125 46.1875 27.296875 
Q 46.1875 37.015625 41.984375 42.703125 
Q 37.796875 48.390625 30.609375 48.390625 
z
M 30.609375 56 
Q 42.328125 56 49.015625 48.375 
Q 55.71875 40.765625 55.71875 27.296875 
Q 55.71875 13.875 49.015625 6.21875 
Q 42.328125 -1.421875 30.609375 -1.421875 
Q 18.84375 -1.421875 12.171875 6.21875 
Q 5.515625 13.875 5.515625 27.296875 
Q 5.515625 40.765625 12.171875 48.375 
Q 18.84375 56 30.609375 56 
z
" id="DejaVuSans-6f"/>
     <path d="M 54.890625 33.015625 
L 54.890625 0 
L 45.90625 0 
L 45.90625 32.71875 
Q 45.90625 40.484375 42.875 44.328125 
Q 39.84375 48.1875 33.796875 48.1875 
Q 26.515625 48.1875 22.3125 43.546875 
Q 18.109375 38.921875 18.109375 30.90625 
L 18.109375 0 
L 9.078125 0 
L 9.078125 54.6875 
L 18.109375 54.6875 
L 18.109375 46.1875 
Q 21.34375 51.125 25.703125 53.5625 
Q 30.078125 56 35.796875 56 
Q 45.21875 56 50.046875 50.171875 
Q 54.890625 44.34375 54.890625 33.015625 
z
" id="DejaVuSans-6e"/>
    </defs>
    <g style="fill:#00008b;" transform="translate(112.466728 25.996875)scale(0.2 -0.2)">
     <use xlink:href="#DejaVuSans-54"/>
     <use x="60.833984" xlink:href="#DejaVuSans-61"/>
     <use x="122.113281" xlink:href="#DejaVuSans-74"/>
     <use x="161.322266" xlink:href="#DejaVuSans-65"/>
     <use x="222.845703" xlink:href="#DejaVuSans-20"/>
     <use x="254.632812" xlink:href="#DejaVuSans-47"/>
     <use x="332.123047" xlink:href="#DejaVuSans-61"/>
     <use x="393.402344" xlink:href="#DejaVuSans-6c"/>
     <use x="421.185547" xlink:href="#DejaVuSans-65"/>
     <use x="482.708984" xlink:href="#DejaVuSans-72"/>
     <use x="523.822266" xlink:href="#DejaVuSans-79"/>
     <use x="583.001953" xlink:href="#DejaVuSans-20"/>
     <use x="614.789062" xlink:href="#DejaVuSans-41"/>
     <use x="683.181641" xlink:href="#DejaVuSans-63"/>
     <use x="738.162109" xlink:href="#DejaVuSans-71"/>
     <use x="801.638672" xlink:href="#DejaVuSans-75"/>
     <use x="865.017578" xlink:href="#DejaVuSans-69"/>
     <use x="892.800781" xlink:href="#DejaVuSans-73"/>
     <use x="944.900391" xlink:href="#DejaVuSans-69"/>
     <use x="972.683594" xlink:href="#DejaVuSans-74"/>
     <use x="1011.892578" xlink:href="#DejaVuSans-69"/>
     <use x="1039.675781" xlink:href="#DejaVuSans-6f"/>
     <use x="1100.857422" xlink:href="#DejaVuSans-6e"/>
     <use x="1164.236328" xlink:href="#DejaVuSans-73"/>
    </g>
   </g>
  </g>
 </g>
 <defs>
  <clipPath id="p30640801e2">
   <rect height="175.02879" width="360.725956" x="53.735" y="45.996875"/>
  </clipPath>
 </defs>
</svg>
